<?xml version="1.0" encoding="UTF-8"?>
<svg width="522px" height="375px" viewBox="0 0 522 375" version="1.1" xmlns="http://www.w3.org/2000/svg" xmlns:xlink="http://www.w3.org/1999/xlink">
    <title>Group-2</title>
    <defs>
        <filter x="-1.3%" y="-1.8%" width="102.5%" height="103.6%" filterUnits="objectBoundingBox" id="filter-1">
            <feOffset dx="0" dy="0" in="SourceAlpha" result="shadowOffsetOuter1"></feOffset>
            <feGaussianBlur stdDeviation="1.5" in="shadowOffsetOuter1" result="shadowBlurOuter1"></feGaussianBlur>
            <feColorMatrix values="0 0 0 0 0.273193308   0 0 0 0 0.635008683   0 0 0 0 0.673233696  0 0 0 0.5 0" type="matrix" in="shadowBlurOuter1" result="shadowMatrixOuter1"></feColorMatrix>
            <feMerge>
                <feMergeNode in="shadowMatrixOuter1"></feMergeNode>
                <feMergeNode in="SourceGraphic"></feMergeNode>
            </feMerge>
        </filter>
        <linearGradient x1="50%" y1="100%" x2="50%" y2="0%" id="linearGradient-2">
            <stop stop-color="#330867" offset="0%"></stop>
            <stop stop-color="#30CFD0" offset="100%"></stop>
        </linearGradient>
        <linearGradient x1="50%" y1="100%" x2="50%" y2="0%" id="linearGradient-3">
            <stop stop-color="#330867" offset="0%"></stop>
            <stop stop-color="#30CFD0" offset="100%"></stop>
        </linearGradient>
        <linearGradient x1="50%" y1="100%" x2="50%" y2="0%" id="linearGradient-4">
            <stop stop-color="#330867" offset="0%"></stop>
            <stop stop-color="#30CFD0" offset="100%"></stop>
        </linearGradient>
        <linearGradient x1="50%" y1="100%" x2="50%" y2="0%" id="linearGradient-5">
            <stop stop-color="#330867" offset="0%"></stop>
            <stop stop-color="#30CFD0" offset="100%"></stop>
        </linearGradient>
        <linearGradient x1="50%" y1="100%" x2="50%" y2="0%" id="linearGradient-6">
            <stop stop-color="#330867" offset="0%"></stop>
            <stop stop-color="#30CFD0" offset="100%"></stop>
        </linearGradient>
        <linearGradient x1="50%" y1="100%" x2="50%" y2="0%" id="linearGradient-7">
            <stop stop-color="#330867" offset="0%"></stop>
            <stop stop-color="#30CFD0" offset="100%"></stop>
        </linearGradient>
    </defs>
    <g id="Page-1" stroke="none" stroke-width="1" fill="none" fill-rule="evenodd">
        <g id="Group-2" filter="url(#filter-1)" transform="translate(5.000000, 5.000000)">
            <g id="Path_1" transform="translate(351.901092, 0.000000)">
                <g id="path-3-link" transform="translate(0.500065, 0.509495)" fill="#000000" fill-rule="nonzero">
                    <path d="M0,302.342502 C0,298.240246 0.372064772,294.14673 1.11442453,290.114798 L21.9981869,175.925175 L36.9639608,94.0892779 C48.6755342,30.0859539 103.311768,-10.8883248 159.02023,2.552494 L107.436785,284.552177 L101.972965,314.447487 C100.182751,324.653003 95.8998167,334.235205 89.5189285,342.310883 C77.6217389,357.198183 59.4057119,364.68207 40.942855,360.215879 C28.073343,356.917047 16.9605715,348.662876 9.94105239,337.188846 C3.41041841,326.787614 -0.0406507961,314.689702 0,302.342502 L0,302.342502 Z" id="path-3"></path>
                </g>
                <path d="M160.098908,2.67958071 C131.940158,-4.26537759 104.023237,2.63501247 81.6966219,19.3789826 C59.5163015,36.0132384 42.8533745,62.3663311 36.9724237,94.5055174 L22.0066388,176.341467 L1.1228784,290.531085 C0.374934942,294.593344 0,298.718266 0,302.851998 C-0.0409700241,315.295261 3.43743959,327.488981 10.019793,337.972585 C17.1046453,349.553475 28.3258173,357.888118 41.320838,361.219122 C50.4943092,363.438244 59.6010901,362.741457 67.9203516,359.675002 C76.5286892,356.501994 84.2942965,350.790575 90.4068752,343.141727 C96.8420953,334.9973 101.160335,325.336128 102.965302,315.046504 L108.428473,285.154822 L160.098908,2.67958071 Z" id="Path" fill="url(#linearGradient-2)"></path>
            </g>
            <path d="M396.583441,290.907414 C395.841917,294.936456 395.470058,299.027037 395.470058,303.126354 C395.42399,315.468835 398.867092,327.563741 405.388303,337.9638 C410.368064,345.943302 417.307537,352.457685 425.518775,356.86114 C431.899705,353.468121 437.527863,348.773881 442.053533,343.070102 C448.426807,334.999941 452.704869,325.424726 454.493558,315.226682 L459.951231,285.352802 L511.452971,3.68393419 C472.963256,13.2492047 441.018015,47.8635019 432.392643,95.0224161 L417.443706,176.795628 L396.583441,290.907414 Z" id="Path_5" fill="url(#linearGradient-3)" fill-rule="nonzero"></path>
            <path d="M511.452971,3.68393419 C472.963256,13.2679363 441.018015,47.9500186 432.392643,95.201284 L417.443706,177.130603 L396.583441,291.461825 C395.841917,295.498758 395.470058,299.59735 395.470058,303.704694 C395.42399,316.071346 398.867092,328.189937 405.388303,338.610362" id="Path_6" fill="url(#linearGradient-4)" fill-rule="nonzero"></path>
            <g id="Path_2">
                <g id="path-7-link" transform="translate(0.578612, 0.509495)" fill="#000000" fill-rule="nonzero">
                    <path d="M159.020283,302.342502 C159.020283,298.240246 158.648111,294.14673 157.905752,290.114798 L137.021998,175.925175 L122.056228,94.0892779 C110.344659,30.0859539 55.7084432,-10.8883248 0,2.552494 L51.5834277,284.552177 L57.0472467,314.447487 C58.8374593,324.653003 63.1203924,334.235205 69.5012787,342.310883 C81.3984632,357.198183 99.6144844,364.68207 118.077335,360.215879 C130.950491,356.919395 142.067148,348.664965 149.089,337.188846 C155.616156,326.78653 159.063774,314.688697 159.020283,302.342502 Z" id="path-7"></path>
                </g>
                <path d="M51.6704306,285.154898 L57.1342357,315.050131 C58.9385527,325.336128 63.2567904,334.9973 69.6902643,343.139531 C75.8045848,350.790575 83.57019,356.501995 92.1785243,359.675002 C100.497783,362.741457 109.604561,363.438244 118.771536,361.220741 C131.776616,357.890519 143.00171,349.555614 150.092047,337.967568 C156.667862,327.487765 160.142793,315.294125 160.098958,302.850155 C160.098958,298.718266 159.723919,294.593344 158.975864,290.530478 L138.092221,176.341461 L123.126452,94.5055708 C117.245493,62.3663311 100.582572,36.0132384 78.4022592,19.3789826 C56.075652,2.63501245 28.1587407,-4.26537762 0,2.67958075 L51.6704306,285.154898 Z" id="Path" fill="url(#linearGradient-5)"></path>
            </g>
            <path d="M115.418512,290.907414 C116.159387,294.936519 116.53115,299.0271 116.529942,303.126354 C116.576009,315.468835 113.132849,327.563741 106.611528,337.9638 C101.632673,345.944146 94.692835,352.458761 86.4807135,356.86114 C80.100291,353.468036 74.4726987,348.773787 69.9476462,343.070102 C63.5738286,335.000215 59.2956398,325.424882 57.5074104,315.226682 L52.0476717,285.354813 L0.547028868,3.68393419 C39.0354258,13.2492047 70.9812094,47.8635019 79.6087013,95.0224161 L94.5559196,176.799648 L115.418512,290.907414 Z" id="Path_3" fill="url(#linearGradient-3)" fill-rule="nonzero"></path>
            <path d="M0.547028868,3.68393419 C39.0354258,13.2679363 70.9812094,47.9500186 79.6087013,95.201284 L94.5559196,177.130603 L115.418512,291.461825 C116.159387,295.498821 116.53115,299.597412 116.529942,303.704694 C116.576009,316.071346 113.132849,328.189937 106.611528,338.610362" id="Path_4" fill="url(#linearGradient-4)" fill-rule="nonzero"></path>
            <path d="M454.159351,317.738705 C452.367647,327.975495 448.081144,337.587063 441.694938,345.687488 L438.335258,349.188654 C417.204846,371.170321 385.445986,370.734441 364.947985,344.720884 C343.623897,317.660005 276.969818,232.138746 276.969818,232.138746 C271.999685,225.350555 264.185337,221.353355 255.88486,221.353355 C247.584385,221.353355 239.770037,225.350555 234.799904,232.138746 L145.734781,346.179872 C123.960102,374.201301 87.6044091,366.668246 71.693359,347.12226 C64.5284663,338.776127 59.6648124,328.635436 57.6004888,317.738705 L42.4364734,234.667253 C96.9047943,267.761841 135.869179,198.995726 179.303916,133.173819 C217.841423,74.7860866 297.904578,73.6762072 336.803747,133.591537 C385.685117,208.87769 406.10802,266.666087 469.321391,234.667253 L454.159351,317.738705 Z" id="Path_9" fill="url(#linearGradient-6)" fill-rule="nonzero"></path>
            <path d="M138.971256,284.761372 L233.143706,171.05057 C238.618515,164.242528 246.80024,160.295335 255.437108,160.295335 C264.073976,160.295335 272.255701,164.242528 277.73051,171.05057 C277.73051,171.05057 348.211777,256.324114 370.753937,283.306612 C392.427419,309.24482 426.007696,309.677426 448.342558,287.76144 L451.896236,284.270416 C457.018477,278.186479 460.885962,271.113431 463.268003,263.473168 L453.519081,316.888855 C451.729205,327.095995 447.447077,336.679722 441.067391,344.756684 L437.71114,348.247709 C416.602296,370.165705 384.875855,369.731088 364.398777,343.794892 C343.096456,316.810382 276.510414,231.536837 276.510414,231.536837 C271.545354,224.768309 263.738983,220.782687 255.446979,220.782687 C247.154975,220.782687 239.348604,224.768309 234.383544,231.536837 L145.399464,345.259714 C123.64701,373.199979 87.328428,365.688744 71.4336191,346.199373 C64.2760399,337.877413 59.4173507,327.766096 57.3551341,316.900928 L47.5213192,263.110987 C50.3307195,271.486752 54.8123895,279.178429 60.6837452,285.701032 C77.5064587,305.190403 115.947376,312.701638 138.971256,284.761372 Z" id="Path_10" fill="url(#linearGradient-7)" fill-rule="nonzero"></path>
            <path d="M47.5213192,263.318707 C50.328999,271.71756 54.8107578,279.430791 60.6837452,285.971607 C77.5064587,305.503029 115.947376,313.03047 138.971256,285.029921 L233.143706,171.073775 C238.618515,164.251045 246.80024,160.295335 255.437108,160.295335 C264.073976,160.295335 272.255701,164.251045 277.73051,171.073775 C277.73051,171.073775 348.211777,256.531306 370.753937,283.572021 C392.427419,309.566194 426.007696,309.999732 448.342558,288.036461 L451.896236,284.537905 C457.018477,278.440841 460.885962,271.352532 463.268003,263.695785" id="Path_11" stroke="#707070" stroke-width="1.33333333" opacity="0.7" style="mix-blend-mode: overlay;"></path>
            <g id="Group_1" opacity="0.61" style="mix-blend-mode: multiply;" transform="translate(39.530847, 170.407252)">
                <path d="M432.69617,45.0477877 L426.231102,80.331969 C423.841832,86.3980286 420.52521,92.0418642 416.403963,97.0546349 L412.768969,100.698132 C389.978073,123.569074 355.72449,123.118414 333.617875,96.0507115 C330.255802,91.9344249 325.845555,86.5144464 320.774759,80.269601 L334.315999,6.33739143 L335.476903,0 C363.403858,44.144458 387.066915,68.216486 432.69617,45.0477877 Z" id="Path_7"></path>
                <path d="M97.9092294,97.8725718 C74.4204296,127.236721 35.2064966,119.350627 18.0393982,98.8593466 C13.1705176,93.2021035 9.21722539,86.7828118 6.32961341,79.8451886 L0,45.0628957 C37.6097717,67.9228414 67.976092,41.768243 97.4740685,1.01869792 L98.3799944,5.99107043 L111.921411,80.4388744 L97.9092294,97.8725718 Z" id="Path_8"></path>
            </g>
        </g>
    </g>
</svg>