<?xml version="1.0" encoding="UTF-8"?>
<svg width="80px" height="66px" viewBox="0 0 80 66" version="1.1" xmlns="http://www.w3.org/2000/svg" xmlns:xlink="http://www.w3.org/1999/xlink">
    <title>Page-1</title>
    <defs>
        <filter x="-12.3%" y="-2.9%" width="125.2%" height="106.6%" filterUnits="objectBoundingBox" id="filter-1">
            <feOffset dx="1" dy="0" in="SourceAlpha" result="shadowOffsetOuter1"></feOffset>
            <feGaussianBlur stdDeviation="5" in="shadowOffsetOuter1" result="shadowBlurOuter1"></feGaussianBlur>
            <feColorMatrix values="0 0 0 0 0   0 0 0 0 0   0 0 0 0 0  0 0 0 0.25 0" type="matrix" in="shadowBlurOuter1" result="shadowMatrixOuter1"></feColorMatrix>
            <feMerge>
                <feMergeNode in="shadowMatrixOuter1"></feMergeNode>
                <feMergeNode in="SourceGraphic"></feMergeNode>
            </feMerge>
        </filter>
    </defs>
    <g id="Symbols" stroke="none" stroke-width="1" fill="none" fill-rule="evenodd">
        <g id="Footer" transform="translate(-149.000000, -1149.000000)" fill="#231F20" filter="url(#filter-1)">
            <g transform="translate(31.000000, 1113.000000)">
                <g id="Powered-by" transform="translate(30.000000, 52.000000)">
                    <g id="Group-2" transform="translate(104.070556, 0.000000)">
                        <g id="Path_1" transform="translate(32.557016, 0.000000)">
                            <path d="M0.0524490099,27.9002114 C0.0513524981,27.5228533 0.0862194221,27.1462414 0.15661326,26.7754504 L2.07903106,16.2776814 L3.46477389,8.74736676 C4.5461339,2.86031996 9.58447055,-0.904837336 14.7269382,0.331602032 L9.96895411,26.2649206 L9.46431944,29.0169954 C9.29837374,29.9523935 8.90205908,30.8322002 8.31086876,31.5776214 C7.27760942,32.961191 5.52093807,33.6058803 3.8332373,33.2208892 C2.63749025,32.9148778 1.6087285,32.1565059 0.96563075,31.1069767 C0.365269315,30.1503768 0.0487122376,29.0442326 0.0524490099,27.9161655 L0.0524490099,27.9002114 Z" id="path-3"></path>
                            <path d="M14.7830087,0.291716891 C12.2698583,-0.307962331 9.61920594,0.258110303 7.57394193,1.83128333 C5.37616115,3.53602643 3.90341509,6.00231064 3.44875374,8.73938973 L2.07102098,16.2617273 L0.140593112,26.7674734 C0.0698374174,27.1409023 0.0349695467,27.5201955 0.0364161899,27.9002114 C0.0342977667,29.0427912 0.356396939,30.1627221 0.96563075,31.1309078 C1.6065243,32.1939934 2.64279223,32.9622547 3.84925745,33.2687514 C4.66455669,33.4709111 5.52235996,33.4208239 6.30835022,33.1251649 C7.12535412,32.8171168 7.8425955,32.2931258 8.38295942,31.6095295 C8.97776531,30.8572308 9.37427079,29.968774 9.53641619,29.0249724 L10.0410448,26.2728977 L14.7830087,0.291716891 Z" id="Path"></path>
                        </g>
                        <path d="M36.6786156,26.8073586 C36.6114838,27.1785981 36.5766443,27.5549143 36.5744729,27.9321195 C36.5722391,29.0610911 36.8916585,30.1675314 37.4956432,31.1229308 C37.9465533,31.8586625 38.5886001,32.4594761 39.3539804,32.8619229 C39.9443644,32.5491863 40.462718,32.1171958 40.8758945,31.5935755 C41.4701301,30.8509144 41.8643662,29.9696017 42.0213351,29.0329494 L42.5259698,26.2888517 L47.2839538,0.363510145 C43.7274809,1.24896027 40.7797736,4.43179452 39.9867763,8.77129784 L38.6090435,16.2936354 L36.6786156,26.8073586 Z" id="Path_5"></path>
                        <path d="M47.2839538,0.371487173 C43.7274809,1.2569373 40.7797736,4.44774857 39.9867763,8.79522893 L38.6090435,16.3335206 L36.6786156,26.8472437 C36.6118439,27.2212166 36.577009,27.6001512 36.5744826,27.9799817 C36.5735507,29.1087702 36.8928675,30.214855 37.4956432,31.170793" id="Path_6"></path>
                        <g id="Path_2">
                            <path d="M14.7952003,27.9002114 C14.7962228,27.5228533 14.7613559,27.1462414 14.6909621,26.7754504 L12.7685443,16.2776814 L11.3908115,8.74736676 C10.3094515,2.86031996 5.26310478,-0.904837336 0.120637163,0.331602032 L4.88663129,26.2649206 L5.39126596,29.0169954 C5.55420731,29.9518477 5.94780912,30.8317424 6.53670657,31.5776214 C7.57258283,32.9625287 9.33223295,33.6071581 11.0223481,33.2208892 C12.2147604,32.9122431 13.2401026,32.1542747 13.8819446,31.1069767 C14.4852194,30.1457843 14.801894,29.0336967 14.7952003,27.9002114 L14.7952003,27.9002114 Z" id="path-7"></path>
                            <path d="M4.83857084,26.2728977 L5.34320552,29.0249724 C5.50835595,29.9693225 5.9075744,30.857689 6.50466627,31.6095295 C7.04124837,32.2970103 7.75968656,32.8218755 8.57927548,33.1251649 C9.36240687,33.4211831 10.2177783,33.4712915 11.0303582,33.2687514 C12.2360405,32.9563137 13.2727843,32.1898287 13.9219949,31.1309078 C14.7232546,29.8257351 15.0087447,28.270547 14.7230024,26.7674734 L12.8005846,16.2617273 L11.4148417,8.73938973 C10.9601804,6.00231064 9.48743432,3.53602643 7.28965354,1.83128333 C5.24539395,0.25595591 2.59370811,-0.310337435 0.0805867921,0.291716891 L4.83857084,26.2728977 Z" id="Path"></path>
                        </g>
                        <path d="M10.7259754,26.8073586 C10.7971022,27.1780467 10.8319756,27.554729 10.8301777,27.9321195 C10.8312823,29.0598286 10.5149254,30.1652732 9.91695786,31.1229308 C9.46180661,31.8552203 8.82081481,32.4550467 8.05862066,32.8619229 C7.46535033,32.5501062 6.94419811,32.1180573 6.52869649,31.5935755 C5.93863647,30.8483952 5.54489801,29.9681951 5.38325589,29.0329494 L4.87862122,26.2888517 L0.120637163,0.363510145 C3.67711009,1.24896027 6.62481738,4.43179452 7.41781472,8.77129784 L8.80355755,16.2936354 L10.7259754,26.8073586 Z" id="Path_3"></path>
                        <path d="M0.120637163,0.371487173 C3.67711009,1.2569373 6.62481738,4.44774857 7.41781472,8.79522893 L8.80355755,16.3335206 L10.7259754,26.8472437 C10.796731,27.2206726 10.8315989,27.5999658 10.8301523,27.9799817 C10.8300019,29.1075129 10.5137433,30.2126143 9.91695786,31.170793" id="Path_4"></path>
                        <path d="M42.005315,29.2722603 C41.8439382,30.21242 41.4503116,31.0978526 40.8598744,31.8488404 L40.5474815,32.1679215 C39.6709812,33.1599444 38.3838115,33.6936034 37.0593652,33.6140903 C35.7349189,33.5345772 34.5214453,32.8507921 33.7709587,31.7610931 C31.8004805,29.2722603 25.6487435,21.3909564 25.6487435,21.3909564 C25.1968183,20.7693148 24.4729335,20.4012383 23.7022955,20.4012383 C22.9316574,20.4012383 22.2077727,20.7693148 21.7558475,21.3909564 L13.5375114,31.8887255 C12.7229517,32.9392357 11.4711473,33.5616408 10.1385007,33.5787352 C8.80585417,33.5958297 7.53836741,33.0057405 6.69690805,31.9764728 C6.03579359,31.2026514 5.58855737,30.2706292 5.39927604,29.2722603 L3.99751306,21.6701524 C9.02783963,24.7094001 12.6243629,18.3915938 16.6374101,12.3370294 C18.1774669,9.80501573 20.9339952,8.25833619 23.9065524,8.25833619 C26.8791095,8.25833619 29.6356379,9.80501573 31.1756947,12.3370294 C35.6853664,19.2610899 37.583754,24.5817677 43.4070779,21.6382443 L42.005315,29.2722603 Z" id="Path_9"></path>
                        <path d="M12.9047155,26.2409896 L21.6036561,15.7831056 C22.1020237,15.1572409 22.8601672,14.7923697 23.6622451,14.7923697 C24.4643231,14.7923697 25.2224665,15.1572409 25.7208342,15.7831056 C25.7208342,15.7831056 32.2250144,23.6245243 34.3076337,26.1053801 C35.1431344,27.2002869 36.4177012,27.8765099 37.7962585,27.9562745 C39.1748158,28.036039 40.5194445,27.5113648 41.4766501,26.5201855 L41.8050631,26.1931274 C42.276888,25.632229 42.6334179,24.9844495 42.8543828,24.2866177 L41.9492444,29.19249 C41.7878965,30.1302408 41.3941972,31.013095 40.8038038,31.7610931 L40.4914109,32.0801742 C39.6164717,33.07205 38.3304891,33.6057724 37.0071881,33.526234 C35.6838872,33.4466957 34.4716973,32.762818 33.7228983,31.6733457 C31.75242,29.19249 25.6086931,21.3510713 25.6086931,21.3510713 C25.156768,20.7294297 24.4328832,20.3613531 23.6622451,20.3613531 C22.8916071,20.3613531 22.1677223,20.7294297 21.7157971,21.3510713 L13.497461,31.8009782 C12.6843525,32.8482964 11.4356658,33.4687013 10.106443,33.4857919 C8.77722026,33.5028824 7.51286629,32.914789 6.67287783,31.8887255 C6.0082257,31.1223312 5.55791692,30.1951656 5.36723574,29.200467 L4.46209736,24.2547095 C4.71941294,25.022526 5.13400655,25.7287735 5.67962863,26.3287369 C6.60477317,27.353453 7.92852146,27.9313507 9.3121286,27.9145471 C10.6957358,27.8977434 12.004939,27.287869 12.9047155,26.2409896 L12.9047155,26.2409896 Z" id="Path_10"></path>
                        <g id="Group_1" opacity="0.61" transform="translate(3.720749, 15.655549)" fill-rule="nonzero">
                            <path d="M39.9666818,4.21977218 L39.3659263,7.46642264 C39.1452509,8.02034438 38.8399343,8.53697233 38.4607879,8.99801205 L38.1243648,9.33304724 C37.1616475,10.3701674 35.7833386,10.9237183 34.3674933,10.841867 C32.951648,10.7600158 31.6469146,10.0513558 30.8111671,8.91026474 L29.6016459,7.45844562 L30.8512174,0.662017608 L30.9633585,0.0796945505 C33.606683,4.14000189 35.7453728,6.3496387 39.9666818,4.21977218 Z" id="Path_7"></path>
                            <path d="M9.04779558,9.07778234 C8.14778234,10.177503 6.80424906,10.8229215 5.37976294,10.8398648 C3.95527682,10.856808 2.59664796,10.2435296 1.67051728,9.16552965 C1.21880172,8.64437641 0.853733396,8.0545977 0.589157265,7.41856047 L0.00442185089,4.2277492 C3.47278396,6.33368464 6.27630992,3.92462213 9.00774521,0.183395917 L9.08784595,0.638086523 L10.3374175,7.4823767 L9.04779558,9.07778234 Z" id="Path_8"></path>
                        </g>
                    </g>
                </g>
            </g>
        </g>
    </g>
</svg>
