<?xml version="1.0" encoding="UTF-8"?>
<svg width="1084px" height="948px" viewBox="0 0 1084 948" version="1.1" xmlns="http://www.w3.org/2000/svg" xmlns:xlink="http://www.w3.org/1999/xlink">
    <title>403 Error Forbidden-bro</title>
    <defs>
        <linearGradient x1="50%" y1="100%" x2="50%" y2="0%" id="linearGradient-1">
            <stop stop-color="#330867" offset="0%"></stop>
            <stop stop-color="#30CFD0" offset="100%"></stop>
        </linearGradient>
        <linearGradient x1="50%" y1="100%" x2="50%" y2="0%" id="linearGradient-2">
            <stop stop-color="#330867" offset="0%"></stop>
            <stop stop-color="#30CFD0" offset="100%"></stop>
        </linearGradient>
        <linearGradient x1="50%" y1="100%" x2="50%" y2="0%" id="linearGradient-3">
            <stop stop-color="#263238" offset="0%"></stop>
            <stop stop-color="#263238" offset="100%"></stop>
        </linearGradient>
        <linearGradient x1="50%" y1="100%" x2="50%" y2="0%" id="linearGradient-4">
            <stop stop-color="#330867" offset="0%"></stop>
            <stop stop-color="#30CFD0" offset="100%"></stop>
        </linearGradient>
        <linearGradient x1="50%" y1="100%" x2="50%" y2="0%" id="linearGradient-5">
            <stop stop-color="#263238" offset="0%"></stop>
            <stop stop-color="#263238" offset="100%"></stop>
        </linearGradient>
        <linearGradient x1="50%" y1="100%" x2="50%" y2="0%" id="linearGradient-6">
            <stop stop-color="#330867" offset="0%"></stop>
            <stop stop-color="#30CFD0" offset="100%"></stop>
        </linearGradient>
        <linearGradient x1="50%" y1="100%" x2="50%" y2="0%" id="linearGradient-7">
            <stop stop-color="#263238" offset="0%"></stop>
            <stop stop-color="#263238" offset="100%"></stop>
        </linearGradient>
        <linearGradient x1="50%" y1="100%" x2="50%" y2="0%" id="linearGradient-8">
            <stop stop-color="#330867" offset="0%"></stop>
            <stop stop-color="#30CFD0" offset="100%"></stop>
        </linearGradient>
        <linearGradient x1="50%" y1="100%" x2="50%" y2="0%" id="linearGradient-9">
            <stop stop-color="#263238" offset="0%"></stop>
            <stop stop-color="#263238" offset="100%"></stop>
        </linearGradient>
        <linearGradient x1="50%" y1="100%" x2="50%" y2="0%" id="linearGradient-10">
            <stop stop-color="#330867" offset="0%"></stop>
            <stop stop-color="#30CFD0" offset="100%"></stop>
        </linearGradient>
        <linearGradient x1="50%" y1="100%" x2="50%" y2="0%" id="linearGradient-11">
            <stop stop-color="#263238" offset="0%"></stop>
            <stop stop-color="#263238" offset="100%"></stop>
        </linearGradient>
        <linearGradient x1="50%" y1="100%" x2="50%" y2="0%" id="linearGradient-12">
            <stop stop-color="#330867" offset="0%"></stop>
            <stop stop-color="#30CFD0" offset="100%"></stop>
        </linearGradient>
        <linearGradient x1="50%" y1="100%" x2="50%" y2="0%" id="linearGradient-13">
            <stop stop-color="#263238" offset="0%"></stop>
            <stop stop-color="#263238" offset="100%"></stop>
        </linearGradient>
        <filter x="-13.9%" y="-19.2%" width="127.8%" height="138.5%" filterUnits="objectBoundingBox" id="filter-14">
            <feOffset dx="0" dy="0" in="SourceAlpha" result="shadowOffsetOuter1"></feOffset>
            <feGaussianBlur stdDeviation="0.5" in="shadowOffsetOuter1" result="shadowBlurOuter1"></feGaussianBlur>
            <feColorMatrix values="0 0 0 0 0.273193308   0 0 0 0 0.635008683   0 0 0 0 0.673233696  0 0 0 0.5 0" type="matrix" in="shadowBlurOuter1" result="shadowMatrixOuter1"></feColorMatrix>
            <feMerge>
                <feMergeNode in="shadowMatrixOuter1"></feMergeNode>
                <feMergeNode in="SourceGraphic"></feMergeNode>
            </feMerge>
        </filter>
        <linearGradient x1="50%" y1="100%" x2="50%" y2="0%" id="linearGradient-15">
            <stop stop-color="#50DFFF" offset="0%"></stop>
            <stop stop-color="#50DFFF" offset="100%"></stop>
        </linearGradient>
        <linearGradient x1="50%" y1="100%" x2="50%" y2="0%" id="linearGradient-16">
            <stop stop-color="#50DFFF" offset="0%"></stop>
            <stop stop-color="#50DFFF" offset="100%"></stop>
        </linearGradient>
        <linearGradient x1="50%" y1="100%" x2="50%" y2="0%" id="linearGradient-17">
            <stop stop-color="#50DFFF" offset="0%"></stop>
            <stop stop-color="#50DFFF" offset="100%"></stop>
        </linearGradient>
        <linearGradient x1="50%" y1="100%" x2="50%" y2="0%" id="linearGradient-18">
            <stop stop-color="#50DFFF" offset="0%"></stop>
            <stop stop-color="#50DFFF" offset="100%"></stop>
        </linearGradient>
        <linearGradient x1="50%" y1="100%" x2="50%" y2="0%" id="linearGradient-19">
            <stop stop-color="#50DFFF" offset="0%"></stop>
            <stop stop-color="#50DFFF" offset="100%"></stop>
        </linearGradient>
        <linearGradient x1="50%" y1="100%" x2="50%" y2="0%" id="linearGradient-20">
            <stop stop-color="#50DFFF" offset="0%"></stop>
            <stop stop-color="#50DFFF" offset="100%"></stop>
        </linearGradient>
        <linearGradient x1="53.7498714%" y1="0%" x2="46.2040828%" y2="100%" id="linearGradient-21">
            <stop stop-color="#FF9944" offset="0%"></stop>
            <stop stop-color="#FC6076" offset="100%"></stop>
        </linearGradient>
    </defs>
    <g id="Page-1" stroke="none" stroke-width="1" fill="none" fill-rule="evenodd">
        <g id="Artboard" transform="translate(-228.000000, -221.000000)">
            <g id="403-Error-Forbidden-bro" transform="translate(230.000000, 221.000000)">
                <g id="freepik--background-simple--inject-2" transform="translate(39.970196, 0.000000)" fill="url(#linearGradient-1)">
                    <path d="M0.30962673,507.007882 C0.30962673,507.007882 6.11032126,687.03534 156.403316,807.053644 C306.696311,927.071949 514.971248,935.648257 683.566434,947.075 C852.161621,958.501743 981.677128,863.012179 1001.10445,718.740175 C1020.53178,574.468171 891.791365,532.111711 821.882995,367.86166 C751.974625,203.611609 758.300382,149.628376 610.407675,48.6129696 C462.514967,-52.4024369 231.137264,9.63202437 109.847742,182.63341 C-11.4417803,355.634796 0.30962673,507.007882 0.30962673,507.007882 Z" id="Path"></path>
                    <path d="M0.30962673,507.007882 C0.30962673,507.007882 6.11032126,687.03534 156.403316,807.053644 C306.696311,927.071949 514.971248,935.648257 683.566434,947.075 C852.161621,958.501743 981.677128,863.012179 1001.10445,718.740175 C1020.53178,574.468171 891.791365,532.111711 821.882995,367.86166 C751.974625,203.611609 758.300382,149.628376 610.407675,48.6129696 C462.514967,-52.4024369 231.137264,9.63202437 109.847742,182.63341 C-11.4417803,355.634796 0.30962673,507.007882 0.30962673,507.007882 Z" id="Path"></path>
                </g>
                <g id="Group" transform="translate(603.081250, 109.790000)" fill="#FFFFFF" fill-rule="nonzero">
                    <g id="403" transform="translate(33.168750, 96.710000)">
                        <path d="M74.25,178.5 L74.25,138.25 L0,138.25 L0,103.625 L66.375,3.5 L108.75,3.5 L108.75,103.75 L122.375,103.75 L122.375,138.25 L108.75,138.25 L108.75,178.5 L74.25,178.5 Z M39.875,103.625 L74.25,103.75 L74.125,50.125 L39.875,103.625 Z" id="Shape"></path>
                        <path d="M213.375,181.75 C203.291667,181.75 194.0625,179.395833 185.6875,174.6875 C177.3125,169.979167 170.083333,163.458333 164,155.125 C157.916667,146.791667 153.208333,137.145833 149.875,126.1875 C146.541667,115.229167 144.875,103.5 144.875,91 C144.875,78.5 146.541667,66.7708333 149.875,55.8125 C153.208333,44.8541667 157.916667,35.2083333 164,26.875 C170.083333,18.5416667 177.3125,12.0208333 185.6875,7.3125 C194.0625,2.60416667 203.291667,0.25 213.375,0.25 C223.458333,0.25 232.666667,2.60416667 241,7.3125 C249.333333,12.0208333 256.541667,18.5416667 262.625,26.875 C268.708333,35.2083333 273.395833,44.8541667 276.6875,55.8125 C279.979167,66.7708333 281.625,78.5 281.625,91 C281.625,103.5 279.979167,115.229167 276.6875,126.1875 C273.395833,137.145833 268.708333,146.791667 262.625,155.125 C256.541667,163.458333 249.333333,169.979167 241,174.6875 C232.666667,179.395833 223.458333,181.75 213.375,181.75 Z M213.375,147.25 C221.625,147.25 228.395833,144.583333 233.6875,139.25 C238.979167,133.916667 242.916667,126.958333 245.5,118.375 C248.083333,109.791667 249.375,100.666667 249.375,91 C249.375,80.75 248.020833,71.375 245.3125,62.875 C242.604167,54.375 238.583333,47.5625 233.25,42.4375 C227.916667,37.3125 221.291667,34.75 213.375,34.75 C205.125,34.75 198.3125,37.4166667 192.9375,42.75 C187.5625,48.0833333 183.583333,55.0416667 181,63.625 C178.416667,72.2083333 177.125,81.3333333 177.125,91 C177.125,100.666667 178.4375,109.770833 181.0625,118.3125 C183.6875,126.854167 187.6875,133.8125 193.0625,139.1875 C198.4375,144.5625 205.208333,147.25 213.375,147.25 Z" id="Shape"></path>
                        <path d="M353.75,181.75 C343.25,181.75 333.666667,179.1875 325,174.0625 C316.333333,168.9375 309.4375,162.083333 304.3125,153.5 C299.1875,144.916667 296.625,135.375 296.625,124.875 L331.125,124.875 C331.125,130.958333 333.3125,136.208333 337.6875,140.625 C342.0625,145.041667 347.416667,147.25 353.75,147.25 C359.916667,147.25 365.25,145.041667 369.75,140.625 C374.25,136.208333 376.5,130.958333 376.5,124.875 C376.5,116.541667 373.1875,110.333333 366.5625,106.25 C359.9375,102.166667 351.208333,100.125 340.375,100.125 L340.375,73.75 C350.041667,73.75 357.666667,72.0208333 363.25,68.5625 C368.833333,65.1041667 371.625,59.9583333 371.625,53.125 C371.625,48.0416667 369.791667,43.6666667 366.125,40 C362.458333,36.3333333 358.083333,34.5 353,34.5 C349.583333,34.5 346.208333,35.3541667 342.875,37.0625 C339.541667,38.7708333 336.8125,41.0208333 334.6875,43.8125 C332.5625,46.6041667 331.5,49.7083333 331.5,53.125 L297,53.125 C297,43.375 299.583333,34.4791667 304.75,26.4375 C309.916667,18.3958333 316.75,11.9791667 325.25,7.1875 C333.75,2.39583333 342.875,0 352.625,0 C362.208333,0 371.0625,2.375 379.1875,7.125 C387.3125,11.875 393.833333,18.2708333 398.75,26.3125 C403.666667,34.3541667 406.125,43.2916667 406.125,53.125 C406.125,59.375 404.729167,65.6875 401.9375,72.0625 C399.145833,78.4375 395.083333,82.9583333 389.75,85.625 C394.416667,87.375 398.3125,90.3541667 401.4375,94.5625 C404.5625,98.7708333 406.9375,103.5625 408.5625,108.9375 C410.1875,114.3125 411,119.625 411,124.875 C411,135.291667 408.395833,144.8125 403.1875,153.4375 C397.979167,162.0625 391.0625,168.9375 382.4375,174.0625 C373.8125,179.1875 364.25,181.75 353.75,181.75 Z" id="Path"></path>
                    </g>
                    <g id="Error" transform="translate(109.882500, 0.000000)">
                        <polygon id="Path" points="0 60.605 0 1.105 37.315 1.105 37.315 11.475 10.37 11.475 10.37 23.545 31.7475 23.545 31.7475 33.915 10.37 33.915 10.37 50.235 37.315 50.235 37.315 60.605"></polygon>
                        <path d="M46.665,60.605 L46.665,1.105 L69.4875,1.105 C72.7175,1.105 75.6358333,1.9125 78.2425,3.5275 C80.8491667,5.1425 82.9175,7.30291667 84.4475,10.00875 C85.9775,12.7145833 86.7425,15.7108333 86.7425,18.9975 C86.7425,23.0208333 85.6729167,26.5483333 83.53375,29.58 C81.3945833,32.6116667 78.6108333,34.7508333 75.1825,35.9975 L89.42,60.605 L77.4775,60.605 L63.7075,36.9325 L57.035,36.9325 L57.035,60.605 L46.665,60.605 Z M57.035,26.5625 L68.2975,26.5625 C70.5075,26.5625 72.4058333,25.7620833 73.9925,24.16125 C75.5791667,22.5604167 76.3725,20.6125 76.3725,18.3175 C76.3725,15.9941667 75.5791667,14.0320833 73.9925,12.43125 C72.4058333,10.8304167 70.5075,10.03 68.2975,10.03 L57.035,10.03 L57.035,26.5625 Z" id="Shape"></path>
                        <path d="M98.2175,60.605 L98.2175,1.105 L121.04,1.105 C124.27,1.105 127.188333,1.9125 129.795,3.5275 C132.401667,5.1425 134.47,7.30291667 136,10.00875 C137.53,12.7145833 138.295,15.7108333 138.295,18.9975 C138.295,23.0208333 137.225417,26.5483333 135.08625,29.58 C132.947083,32.6116667 130.163333,34.7508333 126.735,35.9975 L140.9725,60.605 L129.03,60.605 L115.26,36.9325 L108.5875,36.9325 L108.5875,60.605 L98.2175,60.605 Z M108.5875,26.5625 L119.85,26.5625 C122.06,26.5625 123.958333,25.7620833 125.545,24.16125 C127.131667,22.5604167 127.925,20.6125 127.925,18.3175 C127.925,15.9941667 127.131667,14.0320833 125.545,12.43125 C123.958333,10.8304167 122.06,10.03 119.85,10.03 L108.5875,10.03 L108.5875,26.5625 Z" id="Shape"></path>
                        <path d="M177.395,61.71 C173.371667,61.71 169.589167,60.9095833 166.0475,59.30875 C162.505833,57.7079167 159.389167,55.4908333 156.6975,52.6575 C154.005833,49.8241667 151.895,46.5445833 150.365,42.81875 C148.835,39.0929167 148.07,35.105 148.07,30.855 C148.07,26.605 148.835,22.6170833 150.365,18.89125 C151.895,15.1654167 154.005833,11.8858333 156.6975,9.0525 C159.389167,6.21916667 162.505833,4.00208333 166.0475,2.40125 C169.589167,0.800416667 173.371667,0 177.395,0 C181.446667,0 185.243333,0.800416667 188.785,2.40125 C192.326667,4.00208333 195.443333,6.21916667 198.135,9.0525 C200.826667,11.8858333 202.930417,15.1654167 204.44625,18.89125 C205.962083,22.6170833 206.72,26.605 206.72,30.855 C206.72,35.105 205.962083,39.0929167 204.44625,42.81875 C202.930417,46.5445833 200.826667,49.8241667 198.135,52.6575 C195.443333,55.4908333 192.326667,57.7079167 188.785,59.30875 C185.243333,60.9095833 181.446667,61.71 177.395,61.71 Z M177.395,51.34 C180.88,51.34 184.060417,50.4120833 186.93625,48.55625 C189.812083,46.7004167 192.1,44.22125 193.8,41.11875 C195.5,38.01625 196.35,34.595 196.35,30.855 C196.35,27.115 195.492917,23.69375 193.77875,20.59125 C192.064583,17.48875 189.776667,15.0095833 186.915,13.15375 C184.053333,11.2979167 180.88,10.37 177.395,10.37 C173.91,10.37 170.729583,11.2979167 167.85375,13.15375 C164.977917,15.0095833 162.69,17.48875 160.99,20.59125 C159.29,23.69375 158.44,27.115 158.44,30.855 C158.44,34.595 159.297083,38.01625 161.01125,41.11875 C162.725417,44.22125 165.013333,46.7004167 167.875,48.55625 C170.736667,50.4120833 173.91,51.34 177.395,51.34 Z" id="Shape"></path>
                        <path d="M215.22,60.605 L215.22,1.105 L238.0425,1.105 C241.2725,1.105 244.190833,1.9125 246.7975,3.5275 C249.404167,5.1425 251.4725,7.30291667 253.0025,10.00875 C254.5325,12.7145833 255.2975,15.7108333 255.2975,18.9975 C255.2975,23.0208333 254.227917,26.5483333 252.08875,29.58 C249.949583,32.6116667 247.165833,34.7508333 243.7375,35.9975 L257.975,60.605 L246.0325,60.605 L232.2625,36.9325 L225.59,36.9325 L225.59,60.605 L215.22,60.605 Z M225.59,26.5625 L236.8525,26.5625 C239.0625,26.5625 240.960833,25.7620833 242.5475,24.16125 C244.134167,22.5604167 244.9275,20.6125 244.9275,18.3175 C244.9275,15.9941667 244.134167,14.0320833 242.5475,12.43125 C240.960833,10.8304167 239.0625,10.03 236.8525,10.03 L225.59,10.03 L225.59,26.5625 Z" id="Shape"></path>
                    </g>
                    <g id="Bestritten" transform="translate(0.000000, 313.460000)">
                        <path d="M0,60.52 L0,1.02 L23.6725,1.02 C26.2508333,1.02 28.6025,1.65041667 30.7275,2.91125 C32.8525,4.17208333 34.5454167,5.865 35.80625,7.99 C37.0670833,10.115 37.6975,12.4666667 37.6975,15.045 C37.6975,17.765 36.99625,20.23 35.59375,22.44 C34.19125,24.65 32.3708333,26.3358333 30.1325,27.4975 C33.4191667,28.6591667 36.1179167,30.6991667 38.22875,33.6175 C40.3395833,36.5358333 41.395,39.8366667 41.395,43.52 C41.395,46.6366667 40.63,49.4841667 39.1,52.0625 C37.57,54.6408333 35.5229167,56.695 32.95875,58.225 C30.3945833,59.755 27.54,60.52 24.395,60.52 L0,60.52 Z M10.3275,24.055 L21.08,24.055 C23.0066667,24.055 24.6570833,23.375 26.03125,22.015 C27.4054167,20.655 28.0925,18.9833333 28.0925,17 C28.0925,14.96 27.4054167,13.2458333 26.03125,11.8575 C24.6570833,10.4691667 23.0066667,9.775 21.08,9.775 L10.3275,9.775 L10.3275,24.055 Z M10.3275,51.765 L22.7375,51.765 C25.3158333,51.765 27.5258333,50.8583333 29.3675,49.045 C31.2091667,47.2316667 32.13,44.9933333 32.13,42.33 C32.13,39.6383333 31.2091667,37.37875 29.3675,35.55125 C27.5258333,33.72375 25.3158333,32.81 22.7375,32.81 L10.3275,32.81 L10.3275,51.765 Z" id="Shape"></path>
                        <polygon id="Path" points="49.895 60.52 49.895 1.02 87.21 1.02 87.21 11.39 60.265 11.39 60.265 23.46 81.6425 23.46 81.6425 33.83 60.265 33.83 60.265 50.15 87.21 50.15 87.21 60.52"></polygon>
                        <path d="M117.98,61.625 C114.693333,61.625 111.534167,61.1079167 108.5025,60.07375 C105.470833,59.0395833 102.82875,57.5520833 100.57625,55.61125 C98.32375,53.6704167 96.7016667,51.34 95.71,48.62 L105.4425,45.05 C106.0375,46.75 107.525,48.2091667 109.905,49.4275 C112.285,50.6458333 114.976667,51.255 117.98,51.255 C120.02,51.255 121.939583,50.93625 123.73875,50.29875 C125.537917,49.66125 126.997083,48.76875 128.11625,47.62125 C129.235417,46.47375 129.795,45.135 129.795,43.605 C129.795,42.0466667 129.214167,40.7645833 128.0525,39.75875 C126.890833,38.7529167 125.403333,37.9525 123.59,37.3575 C121.776667,36.7625 119.906667,36.3091667 117.98,35.9975 C113.758333,35.3458333 109.975833,34.34 106.6325,32.98 C103.289167,31.62 100.647083,29.7358333 98.70625,27.3275 C96.7654167,24.9191667 95.795,21.8025 95.795,17.9775 C95.795,14.3791667 96.8291667,11.2270833 98.8975,8.52125 C100.965833,5.81541667 103.685833,3.71875 107.0575,2.23125 C110.429167,0.74375 114.07,0 117.98,0 C121.238333,0 124.383333,0.517083333 127.415,1.55125 C130.446667,2.58541667 133.102917,4.07291667 135.38375,6.01375 C137.664583,7.95458333 139.300833,10.2991667 140.2925,13.0475 L130.5175,16.575 C129.894167,14.8466667 128.406667,13.3875 126.055,12.1975 C123.703333,11.0075 121.011667,10.4125 117.98,10.4125 C115.968333,10.4125 114.062917,10.73125 112.26375,11.36875 C110.464583,12.00625 108.998333,12.89875 107.865,14.04625 C106.731667,15.19375 106.165,16.5041667 106.165,17.9775 C106.165,19.8758333 106.69625,21.3066667 107.75875,22.27 C108.82125,23.2333333 110.245,23.9416667 112.03,24.395 C113.815,24.8483333 115.798333,25.245 117.98,25.585 C121.946667,26.2083333 125.615833,27.2566667 128.9875,28.73 C132.359167,30.2033333 135.065,32.1654167 137.105,34.61625 C139.145,37.0670833 140.165,40.0633333 140.165,43.605 C140.165,47.2316667 139.145,50.3908333 137.105,53.0825 C135.065,55.7741667 132.359167,57.8708333 128.9875,59.3725 C125.615833,60.8741667 121.946667,61.625 117.98,61.625 Z" id="Path"></path>
                        <polygon id="Path" points="194.6925 1.02 194.6925 11.39 176.5025 11.39 176.5025 60.52 166.1325 60.52 166.1325 11.39 147.9425 11.39 147.9425 1.02"></polygon>
                        <path d="M203.1925,60.52 L203.1925,1.02 L226.015,1.02 C229.245,1.02 232.163333,1.8275 234.77,3.4425 C237.376667,5.0575 239.445,7.21791667 240.975,9.92375 C242.505,12.6295833 243.27,15.6258333 243.27,18.9125 C243.27,22.9358333 242.200417,26.4633333 240.06125,29.495 C237.922083,32.5266667 235.138333,34.6658333 231.71,35.9125 L245.9475,60.52 L234.005,60.52 L220.235,36.8475 L213.5625,36.8475 L213.5625,60.52 L203.1925,60.52 Z M213.5625,26.4775 L224.825,26.4775 C227.035,26.4775 228.933333,25.6770833 230.52,24.07625 C232.106667,22.4754167 232.9,20.5275 232.9,18.2325 C232.9,15.9091667 232.106667,13.9470833 230.52,12.34625 C228.933333,10.7454167 227.035,9.945 224.825,9.945 L213.5625,9.945 L213.5625,26.4775 Z" id="Shape"></path>
                        <polygon id="Path" points="256.02 60.52 256.02 1.02 266.39 1.02 266.39 60.52"></polygon>
                        <polygon id="Path" points="322.915 1.02 322.915 11.39 304.725 11.39 304.725 60.52 294.355 60.52 294.355 11.39 276.165 11.39 276.165 1.02"></polygon>
                        <polygon id="Path" points="376.465 1.02 376.465 11.39 358.275 11.39 358.275 60.52 347.905 60.52 347.905 11.39 329.715 11.39 329.715 1.02"></polygon>
                        <polygon id="Path" points="384.965 60.52 384.965 1.02 422.28 1.02 422.28 11.39 395.335 11.39 395.335 23.46 416.7125 23.46 416.7125 33.83 395.335 33.83 395.335 50.15 422.28 50.15 422.28 60.52"></polygon>
                        <polygon id="Path" points="431.63 60.52 431.63 1.02 442.85 1.02 467.9675 41.7775 467.9675 1.02 478.3375 1.02 478.3375 60.52 467.16 60.52 442 19.7625 442 60.52"></polygon>
                    </g>
                </g>
                <g id="freepik--Padlock--inject-2" transform="translate(64.432715, 91.744548)" stroke="#FFFFFF" stroke-linecap="round" stroke-linejoin="round" stroke-width="5">
                    <path d="M46.1805293,180.127472 L46.1805293,115.692645 C46.1805293,70.0856892 84.0850677,32.98003 130.665645,32.98003 C177.246222,32.98003 215.15076,70.0856892 215.15076,115.692645 L215.15076,180.127472 L248.829793,180.127472 L248.829793,115.692645 C248.829793,51.9079168 195.823446,0 130.665645,0 C65.5078434,0 12.5014968,51.9079168 12.5014968,115.692645 L12.5014968,180.127472 L46.1805293,180.127472 Z" id="Path"></path>
                    <rect id="Rectangle" x="0" y="180.577541" width="257.980889" height="213.407548"></rect>
                    <path d="M155.818656,269.21606 C155.365487,254.02763 142.922485,241.949961 127.727793,241.949961 C112.533102,241.949961 100.090099,254.02763 99.6369297,269.21606 C99.6983402,279.391745 105.372813,288.702033 114.388696,293.419751 L109.66313,341.877142 L145.792456,341.877142 L141.06689,293.419751 C150.082773,288.702033 155.757246,279.391745 155.818656,269.21606 L155.818656,269.21606 Z" id="Path"></path>
                </g>
                <g id="freepik--Character--inject-2" transform="translate(236.778350, 160.010837)">
                    <polygon id="Path" stroke="#FFFFFF" stroke-width="0.5" fill="#263238" fill-rule="nonzero" stroke-linecap="round" stroke-linejoin="round" points="246.454508 332.644856 182.221818 328.419212 182.221818 327.369052 174.320872 327.894132 166.444929 327.369052 166.444929 328.419212 102.212238 332.644856 54.8315651 722.204271 102.212238 722.204271 172.745683 411.606899 175.921063 411.606899 246.454508 722.204271 293.835181 722.204271"></polygon>
                    <path d="M54.8315651,722.179267 L43.255179,740.081997 L7.45089211,755.884407 C3.61116108,758.005522 1.20551695,762.024607 1.15013771,766.411013 L1.15013771,780.088099 L103.262364,780.088099 C103.864077,772.732595 103.864077,765.340232 103.262364,757.984728 C102.212238,747.458122 102.212238,722.179267 102.212238,722.179267 L54.8315651,722.179267 Z" id="Path" stroke="#FFFFFF" stroke-width="0.5" fill="#4C4C4C" fill-rule="nonzero" stroke-linecap="round" stroke-linejoin="round"></path>
                    <path d="M1.15013771,768.511333 L1.15013771,780.088099 L103.262364,780.088099 C103.262364,780.088099 103.737421,775.087336 103.737421,768.511333 L1.15013771,768.511333 Z" id="Path" stroke="#FFFFFF" stroke-width="0.5" fill="#263238" fill-rule="nonzero" stroke-linecap="round" stroke-linejoin="round"></path>
                    <path d="M293.635157,722.179267 L305.211544,740.081997 L341.01583,755.884407 C344.855561,758.005522 347.261206,762.024607 347.316585,766.411013 L347.316585,780.088099 L245.204359,780.088099 C244.602646,772.732595 244.602646,765.340232 245.204359,757.984728 C246.254484,747.458122 246.254484,722.179267 246.254484,722.179267 L293.635157,722.179267 Z" id="Path" stroke="#FFFFFF" stroke-width="0.5" fill="#4C4C4C" fill-rule="nonzero" stroke-linecap="round" stroke-linejoin="round"></path>
                    <path d="M347.366591,768.511333 L347.366591,780.088099 L245.204359,780.088099 C245.204359,780.088099 244.754305,775.087336 244.729302,768.511333 L347.366591,768.511333 Z" id="Path" stroke="#FFFFFF" stroke-width="0.5" fill="#263238" fill-rule="nonzero" stroke-linecap="round" stroke-linejoin="round"></path>
                    <path d="M75.008981,151.417216 C75.008981,151.417216 0,256.833294 0,264.559472 C0,272.285651 11.926428,331.94475 30.8786972,337.545604 C49.8309664,343.146458 60.3572267,333.344963 63.8576458,313.691966 C67.3580649,294.038968 55.4316369,265.959686 55.4316369,265.959686 L90.435828,234.379869 L75.008981,151.417216 Z" id="Path" stroke="#263238" stroke-width="2.91585835" fill="#50DFFF" fill-rule="nonzero" stroke-linecap="round" stroke-linejoin="round"></path>
                    <path d="M60.4572387,310.891539 C60.4572387,310.891539 82.2098431,307.366001 87.8355167,308.766215 C93.4611903,310.166428 97.6616932,323.518465 97.6616932,323.518465 C97.6616932,323.518465 99.7619447,343.171462 96.2365226,347.372103 C92.7111005,351.572743 75.8840857,356.498495 68.8832475,357.898708 C61.8824093,359.298922 47.10564,343.171462 41.3799545,333.344963 C35.6542689,323.518465 45.7054724,306.665894 60.4572387,310.891539 Z" id="Path" stroke="#263238" stroke-width="2.91585835" fill="#CCCCCC" fill-rule="nonzero" stroke-linecap="round" stroke-linejoin="round"></path>
                    <polygon id="Path" stroke="#263238" stroke-width="2.91585835" fill="#50DFFF" fill-rule="nonzero" stroke-linecap="round" stroke-linejoin="round" points="90.78587 146.641488 75.008981 151.417216 99.8619567 317.317519 247.579643 317.317519 270.057334 152.367361 249.979931 144.716194 175.871057 128.463715"></polygon>
                    <polygon id="Path" stroke="#263238" stroke-width="2.91585835" fill="#263238" fill-rule="nonzero" stroke-linecap="round" stroke-linejoin="round" points="255.705616 202.099946 252.380218 226.003592 226.552125 232.204538 200.248976 221.702936 202.174207 200.174653"></polygon>
                    <polygon id="Path" stroke="#263238" stroke-width="2.91585835" fill="#263238" fill-rule="nonzero" stroke-linecap="round" stroke-linejoin="round" points="160.094168 159.068383 173.97083 175.320862 156.26871 288.138068 174.920944 317.792591 196.923578 286.712851 178.271345 175.795934 194.048234 160.493601 177.321231 138.990321"></polygon>
                    <polygon id="Path" stroke="#263238" stroke-width="2.91585835" fill="#263238" fill-rule="nonzero" stroke-linecap="round" stroke-linejoin="round" points="146.717567 130.864082 83.1349539 146.641488 85.0601844 154.292655 147.192624 137.065027"></polygon>
                    <polygon id="Path" stroke="#263238" stroke-width="2.91585835" fill="#263238" fill-rule="nonzero" stroke-linecap="round" stroke-linejoin="round" points="198.823806 128.938788 262.406418 144.716194 260.506191 152.367361 198.348749 135.164737"></polygon>
                    <path d="M262.356412,144.716194 C262.356412,144.716194 286.409292,150.142022 301.136056,158.568307 C315.862819,166.994592 319.388241,185.947483 310.962232,207.000694 C302.536223,228.053905 276.583116,225.253477 264.656688,219.5026 C252.73026,213.751723 249.204838,192.848535 251.305089,183.722143" id="Path" stroke="#263238" stroke-width="2.91585835" fill="#50DFFF" fill-rule="nonzero" stroke-linecap="round" stroke-linejoin="round"></path>
                    <polygon id="Path" stroke="#263238" stroke-width="2.91585835" fill="#50DFFF" fill-rule="nonzero" stroke-linecap="round" stroke-linejoin="round" points="149.592911 122.737842 142.417052 127.513571 144.317279 175.795934 175.396 153.817582 207.899892 176.271007 210.775236 128.463715 202.174207 121.287621"></polygon>
                    <path d="M212.350425,65.3040825 C212.350425,65.3040825 230.002539,61.0034266 233.327937,43.3507343 C236.653335,25.698042 204.849527,4.21976618 182.796887,0.419186528 C160.744246,-3.38139312 128.415375,19.4970962 123.164747,35.2494987 C117.914118,51.0019012 138.416573,66.7292999 160.369201,70.0798109 C182.32183,73.4303219 212.350425,65.3040825 212.350425,65.3040825 Z" id="Path" stroke="#263238" stroke-width="2.91585835" fill="#263238" fill-rule="nonzero" stroke-linecap="round" stroke-linejoin="round"></path>
                    <path d="M146.542546,68.1795211 C146.542546,68.1795211 136.991402,53.3772635 134.616118,66.2542275 C132.240833,79.1311914 142.242031,84.8570647 146.542546,84.3819922 C150.843061,83.9069198 146.542546,68.1795211 146.542546,68.1795211 Z" id="Path" stroke="#263238" stroke-width="2.91585835" fill="#CCCCCC" fill-rule="nonzero" stroke-linecap="round" stroke-linejoin="round"></path>
                    <path d="M208.574973,68.1795211 C208.574973,68.1795211 218.126117,53.3772635 220.501401,66.2542275 C222.876685,79.1311914 213.000503,84.8570647 208.574973,84.3819922 C204.149443,83.9069198 208.574973,68.1795211 208.574973,68.1795211 Z" id="Path" stroke="#263238" stroke-width="2.91585835" fill="#CCCCCC" fill-rule="nonzero" stroke-linecap="round" stroke-linejoin="round"></path>
                    <polygon id="Path" stroke="#263238" stroke-width="2.91585835" fill="#CCCCCC" fill-rule="nonzero" stroke-linecap="round" stroke-linejoin="round" points="148.642797 97.3839753 148.642797 128.938788 175.396 153.817582 205.524608 127.988643 205.524608 98.359124"></polygon>
                    <path d="M144.642318,58.6280643 C144.642318,58.6280643 143.192145,88.2075757 145.592432,97.7590325 C147.992719,107.310489 163.719602,127.338544 176.121087,131.6392 C188.522572,135.939856 205.699629,110.160924 209.525087,101.634624 C213.350545,93.1083232 211.900371,56.7777821 211.900371,56.7777821 C211.900371,56.7777821 206.674746,44.2758754 196.173488,40.575311 C185.672231,36.8747466 153.218345,30.123717 144.642318,58.6280643 Z" id="Path" stroke="#263238" stroke-width="2.91585835" fill="#CCCCCC" fill-rule="nonzero" stroke-linecap="round" stroke-linejoin="round"></path>
                    <path d="M164.469692,74.3304592 C164.469692,76.5808024 163.44457,78.4060808 162.169417,78.4060808 C160.894264,78.4060808 159.869141,76.5808024 159.869141,74.3304592 C159.869141,72.080116 160.894264,70.2548376 162.169417,70.2548376 C163.44457,70.2548376 164.469692,72.080116 164.469692,74.3304592 Z" id="Path" fill="#263238" fill-rule="nonzero"></path>
                    <path d="M193.748198,74.3304592 C193.748198,76.5808024 192.723075,78.4060808 191.447922,78.4060808 C190.17277,78.4060808 189.147647,76.5808024 189.147647,74.3304592 C189.147647,72.080116 190.17277,70.2548376 191.447922,70.2548376 C192.723075,70.2548376 193.748198,72.080116 193.748198,74.3304592 Z" id="Path" fill="#263238" fill-rule="nonzero"></path>
                    <path d="M169.445288,85.7321982 C168.157457,85.4246816 166.813233,85.9419628 166.063738,87.0334778 C165.314244,88.1249929 165.314244,89.565353 166.063738,90.6568681 C166.813233,91.7483832 168.157457,92.2656643 169.445288,91.9581477 C170.449452,91.9793886 171.430033,91.6525172 172.22062,91.0330066 C173.715414,92.7905423 175.89424,93.8197726 178.201114,93.8580622 C180.507989,93.8963519 182.71977,92.9399971 184.272063,91.2330371 C185.015868,91.7157821 185.885698,91.9680411 186.772363,91.9581477 C188.060194,92.2656643 189.404418,91.7483832 190.153912,90.6568681 C190.903407,89.565353 190.903407,88.1249929 190.153912,87.0334778 C189.404418,85.9419628 188.060194,85.4246816 186.772363,85.7321982" id="Path" stroke="#263238" stroke-width="2.91585835" fill="#CCCCCC" fill-rule="nonzero" stroke-linecap="round" stroke-linejoin="round"></path>
                    <line x1="173.245743" y1="105.310184" x2="183.221937" y2="105.310184" id="Path" stroke="#263238" stroke-width="2.91585835" fill="#CCCCCC" fill-rule="nonzero" stroke-linecap="round" stroke-linejoin="round"></line>
                    <path d="M143.542187,65.8041588 C143.542187,65.8041588 143.892228,75.4056232 147.092612,72.9052419 C150.292995,70.4048605 151.343121,54.1023741 148.517782,51.97705 C145.692444,49.8517258 143.542187,60.8534037 143.542187,65.8041588 Z" id="Path" stroke="#263238" stroke-width="2.91585835" fill="#263238" fill-rule="nonzero" stroke-linecap="round" stroke-linejoin="round"></path>
                    <path d="M205.12456,65.8041588 C205.12456,65.8041588 205.499605,75.4056232 208.674985,72.9052419 C211.850365,70.4048605 212.950497,54.1023741 210.100156,51.97705 C207.249814,49.8517258 205.12456,60.8534037 205.12456,65.8041588 Z" id="Path" stroke="#263238" stroke-width="2.91585835" fill="#263238" fill-rule="nonzero" stroke-linecap="round" stroke-linejoin="round"></path>
                    <path d="M143.542187,58.002969 C143.542187,58.002969 144.617315,58.8781025 144.592312,59.3031673 C149.217866,61.8035487 159.844138,66.4042503 177.096204,67.3293914 C189.331725,67.7520283 201.445931,64.7839504 212.100395,58.7530834 C212.100395,57.4778889 212.100395,56.7277745 212.100395,56.7027707 C211.675344,45.5260661 203.37435,38.0749297 193.09812,35.2244949 C182.996701,32.4431876 172.269295,32.9778226 162.494456,36.7497275 C157.537331,38.6192795 153.163608,41.768118 149.817938,45.8761195 C148.542785,47.276333 141.791977,56.6027555 143.542187,58.002969 Z" id="Path" stroke="#263238" stroke-width="2.91585835" fill="#4C4C4C" fill-rule="nonzero" stroke-linecap="round" stroke-linejoin="round"></path>
                    <path d="M144.642318,58.6280643 C155.305228,60.9865314 166.253724,61.78664 177.14621,61.0034266 C197.673668,60.0532817 211.950377,58.6280643 211.950377,58.6280643 C202.517042,67.4714478 190.34056,72.8186867 177.446246,73.7803753 C164.65118,74.6113871 152.305188,68.9087071 144.642318,58.6280643 L144.642318,58.6280643 Z" id="Path" stroke="#263238" stroke-width="2.91585835" fill="#4C4C4C" fill-rule="nonzero" stroke-linecap="round" stroke-linejoin="round"></path>
                    <polygon id="Path" stroke="#263238" stroke-width="2.91585835" fill="#263238" fill-rule="nonzero" stroke-linecap="round" stroke-linejoin="round" points="92.2360436 202.099946 95.5614417 226.003592 121.389534 232.204538 147.667681 221.702936 145.767453 200.174653"></polygon>
                    <ellipse id="Oval" stroke="#263238" stroke-width="2.91585835" fill="#4C4C4C" fill-rule="nonzero" stroke-linecap="round" stroke-linejoin="round" cx="119.714334" cy="221.452898" rx="4.55054484" ry="4.55069406"></ellipse>
                    <rect id="Rectangle" stroke="#263238" stroke-width="2.91585835" fill="#4C4C4C" fill-rule="nonzero" stroke-linecap="round" stroke-linejoin="round" x="97.6616932" y="315.792286" width="151.593151" height="23.8536381"></rect>
                    <rect id="Rectangle" stroke="#263238" stroke-width="2.91585835" fill="#4C4C4C" fill-rule="nonzero" stroke-linecap="round" stroke-linejoin="round" x="87.1354329" y="317.1925" width="46.3305472" height="29.4794961" rx="6.675"></rect>
                    <rect id="Rectangle" stroke="#263238" stroke-width="2.91585835" fill="#4C4C4C" fill-rule="nonzero" stroke-linecap="round" stroke-linejoin="round" x="207.849886" y="317.1925" width="46.3305472" height="29.4794961" rx="6.675"></rect>
                    <rect id="Rectangle" stroke="#263238" stroke-width="2.91585835" fill="#FFFFFF" fill-rule="nonzero" stroke-linecap="round" stroke-linejoin="round" x="159.419088" y="317.1925" width="32.9789486" height="21.053211"></rect>
                    <path d="M55.5316489,265.959686 C55.5316489,265.959686 34.4791282,264.559472 26.7532032,251.207436" id="Path" stroke="#263238" stroke-width="2.91585835" stroke-linecap="round" stroke-linejoin="round"></path>
                    <ellipse id="Oval" stroke="#263238" stroke-width="2.91585835" fill="#50DFFF" fill-rule="nonzero" stroke-linecap="round" stroke-linejoin="round" cx="289.609675" cy="167.694699" rx="34.7541612" ry="36.5055677"></ellipse>
                    <ellipse id="Oval" stroke="#263238" stroke-width="2.91585835" fill="#50DFFF" fill-rule="nonzero" stroke-linecap="round" stroke-linejoin="round" cx="289.609675" cy="149.216881" rx="27.2032571" ry="24.3787182"></ellipse>
                    <ellipse id="Oval" stroke="#263238" stroke-width="2.91585835" fill="#CCCCCC" fill-rule="nonzero" stroke-linecap="round" stroke-linejoin="round" cx="289.609675" cy="131.289146" rx="27.2032571" ry="24.3787182"></ellipse>
                    <path d="M245.904443,78.7311304 C245.904443,78.7311304 246.379499,114.686614 248.204718,125.288231 C250.029937,135.889848 257.430823,149.716957 267.582038,149.716957 C274.344155,149.55007 281.036771,148.309406 287.409412,146.041396 C287.409412,146.041396 299.385846,152.49238 310.912226,150.642098 C322.438606,148.791816 320.588385,132.664356 320.588385,125.638285 C320.588385,118.612213 319.21322,66.6292847 319.21322,66.6292847 C319.21322,66.6292847 320.138331,61.628522 315.512777,60.6533732 C313.244212,60.1424847 310.93497,59.8329023 308.611951,59.7282321 L308.611951,48.6515428 C306.877958,46.0664737 303.856808,44.6520675 300.761011,44.9759822 C294.785295,44.9759822 294.310238,46.3511919 294.310238,46.3511919 L294.310238,36.1996436 C294.310238,36.1996436 289.30964,28.1234119 282.783858,32.0490106 C280.112367,33.5825971 278.385491,36.3513199 278.183307,39.4251356 L277.708251,49.1266152 C277.708251,49.1266152 266.656927,44.9759822 265.731817,51.4269661 C264.806706,57.8779499 262.956484,97.6340134 262.956484,97.6340134 C262.301526,91.3831112 261.071163,85.2059845 259.281044,79.181199 C256.980769,73.1802838 245.904443,73.1802838 245.904443,78.7311304 Z" id="Path" stroke="#263238" stroke-width="2.91585835" fill="#CCCCCC" fill-rule="nonzero" stroke-linecap="round" stroke-linejoin="round"></path>
                    <line x1="277.708251" y1="49.2266305" x2="278.633361" y2="91.6330982" id="Path" stroke="#263238" stroke-width="2.91585835" stroke-linecap="round" stroke-linejoin="round"></line>
                    <line x1="294.310238" y1="46.4512072" x2="294.785295" y2="92.0831668" id="Path" stroke="#263238" stroke-width="2.91585835" stroke-linecap="round" stroke-linejoin="round"></line>
                    <line x1="308.611951" y1="59.8282474" x2="307.68684" y2="91.6330982" id="Path" stroke="#263238" stroke-width="2.91585835" stroke-linecap="round" stroke-linejoin="round"></line>
                    <line x1="271.732535" y1="91.1830295" x2="313.687558" y2="93.0083079" id="Path" stroke="#263238" stroke-width="2.91585835" stroke-linecap="round" stroke-linejoin="round"></line>
                    <path d="M262.956484,97.6340134 C262.981966,101.161415 264.656541,104.473667 267.482026,106.585379 C272.032571,109.435813 282.283798,116.836942 283.408933,128.788765" id="Path" stroke="#263238" stroke-width="2.91585835" stroke-linecap="round" stroke-linejoin="round"></path>
                    <g id="Group-2" transform="translate(169.000000, 42.000000)">
                        <g id="Path_1" transform="translate(12.371523, 0.000000)">
                            <g id="path-3-link" transform="translate(0.017580, 0.018146)" fill="#263238" fill-rule="nonzero">
                                <path d="M0,10.7683631 C0,10.6222553 0.0130804021,10.4764589 0.0391789873,10.3328558 L0.773373758,6.26582814 L1.29951425,3.35112497 C1.71124925,1.07155452 3.63205434,-0.387803348 5.59055498,0.0909107452 L3.77707448,10.1347351 L3.58498704,11.1994995 C3.52204984,11.5629837 3.37147793,11.9042676 3.14714983,12.1918945 C2.72888926,12.7221271 2.08848206,12.9886765 1.43939725,12.8296067 C0.986953464,12.712114 0.596270091,12.4181298 0.349490123,12.0094658 C0.119897522,11.6390109 -0.00142912955,11.2081264 0,10.7683631 L0,10.7683631 Z" id="path-3"></path>
                            </g>
                            <path d="M5.62847724,0.0954371212 C4.63852117,-0.151917558 3.65706691,0.0938497592 2.87214686,0.690210338 C2.09236998,1.28266329 1.50656395,2.22126659 1.29981177,3.36594993 L0.773670894,6.28065501 L0.0394761936,10.3476825 C0.0131813066,10.4923657 0,10.6392807 0,10.7865095 C-0.00144035241,11.2296942 0.120847486,11.6639911 0.352258349,12.0373797 C0.601335186,12.4498498 0.995829516,12.7467001 1.45268571,12.8653386 C1.77519056,12.9443758 2.09535082,12.9195588 2.38782486,12.8103425 C2.69046173,12.6973313 2.96347136,12.4939109 3.17836671,12.2214862 C3.40460491,11.9314107 3.55641802,11.5873142 3.61987391,11.2208344 L3.8119385,10.1561991 L5.62847724,0.0954371212 Z" id="Path" fill="url(#linearGradient-3)"></path>
                        </g>
                        <path d="M13.9423866,10.361086 C13.9163174,10.5045861 13.9032442,10.650278 13.9032442,10.7962811 C13.9016247,11.2358763 14.0226712,11.6666538 14.2519325,12.0370669 C14.4270022,12.3212683 14.6709681,12.5532874 14.9596444,12.7101228 C15.183974,12.5892755 15.3818389,12.4220834 15.5409445,12.2189351 C15.7650049,11.9315047 15.9154056,11.5904697 15.9782891,11.2272517 L16.1701605,10.1632505 L17.9807685,0.131208615 C16.6276145,0.471889481 15.5045396,1.70472746 15.2013038,3.38436003 L14.6757553,6.29683057 L13.9423866,10.361086 Z" id="Path_5" fill="url(#linearGradient-5)" fill-rule="nonzero"></path>
                        <path d="M17.9807685,0.131208615 C16.6276145,0.472556635 15.5045396,1.70780888 15.2013038,3.39073066 L14.6757553,6.3087612 L13.9423866,10.3808321 C13.9163174,10.5246133 13.9032442,10.6705906 13.9032442,10.8168795 C13.9016247,11.2573356 14.0226712,11.6889567 14.2519325,12.0600951" id="Path_6" fill="url(#linearGradient-7)" fill-rule="nonzero"></path>
                        <g id="Path_2">
                            <g id="path-7-link" transform="translate(0.020342, 0.018146)" fill="#263238" fill-rule="nonzero">
                                <path d="M5.59055684,10.7683631 C5.59055684,10.6222553 5.57747264,10.4764589 5.55137409,10.3328558 L4.8171796,6.26582814 L4.29103925,3.35112497 C3.87930443,1.07155452 1.95849996,-0.387803348 0,0.0909107452 L1.81347988,10.1347351 L2.00556727,11.1994995 C2.06850443,11.5629837 2.2190763,11.9042676 2.44340433,12.1918945 C2.86166472,12.7221271 3.50207172,12.9886765 4.15115633,12.8296067 C4.6037282,12.7121976 4.99454817,12.4182042 5.24141017,12.0094658 C5.47088048,11.6389723 5.59208579,11.2080906 5.59055684,10.7683631 Z" id="path-7"></path>
                            </g>
                            <path d="M1.81653857,10.1562018 L2.00862547,11.2209636 C2.07205849,11.5873142 2.22387154,11.9314107 2.45004835,12.221408 C2.66500493,12.4939109 2.93801449,12.6973313 3.24065125,12.8103425 C3.53312519,12.9195588 3.85328536,12.9443758 4.1755618,12.8653962 C4.63277164,12.7467856 5.02740387,12.449926 5.27667353,12.0372011 C5.50785451,11.6639478 5.63002006,11.2296538 5.62847899,10.7864439 C5.62847899,10.6392807 5.61529401,10.4923657 5.58899522,10.3476609 L4.85480464,6.28065479 L4.32866432,3.36595184 C4.12191186,2.22126659 3.53610606,1.28266329 2.75632943,0.690210338 C1.97140964,0.0938497586 0.989955729,-0.151917559 0,0.0954371224 L1.81653857,10.1562018 Z" id="Path" fill="url(#linearGradient-9)"></path>
                        </g>
                        <path d="M4.05768207,10.361086 C4.08372846,10.5045884 4.09679824,10.6502803 4.09675576,10.7962811 C4.09837532,11.2358763 3.97732673,11.6666538 3.74806154,12.0370669 C3.57302365,12.3212984 3.32904498,12.5533257 3.04033758,12.7101228 C2.81602585,12.5892725 2.61818082,12.4220801 2.45909694,12.2189351 C2.23501741,11.9315145 2.08461234,11.5904752 2.0217449,11.2272517 L1.82980096,10.1633221 L0.0192314836,0.131208615 C1.37233919,0.471889481 2.49543314,1.70472746 2.7987434,3.38436003 L3.32423155,6.29697376 L4.05768207,10.361086 Z" id="Path_3" fill="url(#linearGradient-5)" fill-rule="nonzero"></path>
                        <path d="M0.0192314836,0.131208615 C1.37233919,0.472556635 2.49543314,1.70780888 2.7987434,3.39073066 L3.32423155,6.3087612 L4.05768207,10.3808321 C4.08372846,10.5246155 4.09679824,10.6705928 4.09675576,10.8168795 C4.09837532,11.2573356 3.97732673,11.6889567 3.74806154,12.0600951" id="Path_4" fill="url(#linearGradient-7)" fill-rule="nonzero"></path>
                        <path d="M15.9665397,11.316721 C15.9035501,11.681319 15.7528527,12.0236488 15.5283377,12.3121571 L15.4102239,12.4368562 C14.6673579,13.2197649 13.5508355,13.2042404 12.8302026,12.2777301 C12.0805276,11.313918 9.73722017,8.26795534 9.73722017,8.26795534 C9.56248893,8.02618415 9.28776574,7.88381813 8.99595212,7.88381813 C8.70413854,7.88381813 8.42941535,8.02618415 8.25468411,8.26795534 L5.12348841,12.3296941 C4.35797232,13.3277176 3.07984251,13.059417 2.52046965,12.3632586 C2.26857889,12.065999 2.09759106,11.7048237 2.02501718,11.316721 L1.49190727,8.35801174 C3.40680917,9.53672312 4.77665083,7.08751902 6.30365328,4.74317711 C7.65848754,2.66361404 10.4732078,2.62408409 11.8407567,4.75805476 C13.5592424,7.43947935 14.2772351,9.49769626 16.4995801,8.35801174 L15.9665397,11.316721 Z" id="Path_9" fill="url(#linearGradient-11)" fill-rule="nonzero"></path>
                        <path d="M4.88570823,10.1421859 L8.1964584,6.09221207 C8.38893216,5.84973389 8.67657092,5.70914891 8.98021083,5.70914891 C9.2838507,5.70914891 9.5714895,5.84973389 9.76396323,6.09221207 C9.76396323,6.09221207 12.2418203,9.12935202 13.0343181,10.0903725 C13.7962765,11.0141991 14.976833,11.0296069 15.762043,10.2490376 L15.886977,10.1246997 C16.0670558,9.90801157 16.2030221,9.65609479 16.2867657,9.38397586 L15.9440302,11.2864524 C15.8811049,11.6499943 15.7305613,11.9913326 15.5062755,12.2790052 L15.3882823,12.403343 C14.6461745,13.183984 13.5307918,13.1685045 12.8108945,12.2447496 C12.0619848,11.2836574 9.72106924,8.24651749 9.72106924,8.24651749 C9.54651636,8.00544664 9.27207361,7.86349297 8.98055786,7.86349297 C8.6890421,7.86349297 8.41459936,8.00544664 8.24004647,8.24651749 L5.11169989,12.2969213 C4.34696521,13.292054 3.07014005,13.0245306 2.51133817,12.3303886 C2.25970453,12.0339901 2.08889124,11.673861 2.01639143,11.2868824 L1.67067138,9.37107625 C1.76943936,9.66939118 1.92699807,9.94334131 2.13341292,10.1756532 C2.72483644,10.8697952 4.07627493,11.1373186 4.88570823,10.1421859 Z" id="Path_10" fill="url(#linearGradient-13)" fill-rule="nonzero"></path>
                        <path d="M1.67067138,9.37847451 C1.76937887,9.67761171 1.9269407,9.95232955 2.13341292,10.1852901 C2.72483644,10.8809298 4.07627493,11.1490304 4.88570823,10.1517506 L8.1964584,6.09303857 C8.38893216,5.85003722 8.67657092,5.70914891 8.98021083,5.70914891 C9.2838507,5.70914891 9.5714895,5.85003722 9.76396323,6.09303857 C9.76396323,6.09303857 12.2418203,9.13673145 13.0343181,10.0998254 C13.7962765,11.0256453 14.976833,11.0410863 15.762043,10.2588329 L15.886977,10.1342268 C16.0670558,9.91707106 16.2030221,9.66461071 16.2867657,9.39190466" id="Path_11" opacity="0.7" style="mix-blend-mode: overlay;"></path>
                        <g id="Group_1" opacity="0.61" style="mix-blend-mode: multiply;" transform="translate(1.389756, 6.069299)">
                            <path d="M15.2119747,1.60444176 L14.9846872,2.86113862 C14.9006894,3.07719006 14.7840894,3.27820338 14.6392018,3.45674042 L14.5114091,3.58650881 C13.7101666,4.4010903 12.5059391,4.3850394 11.7287534,3.42098425 C11.6105555,3.27437678 11.4555078,3.08133645 11.2772376,2.85891729 L11.7532968,0.225715311 L11.7941099,0 C12.7759169,1.57226837 13.6078212,2.42962827 15.2119747,1.60444176 Z" id="Path_7"></path>
                            <path d="M3.44212135,3.48587242 C2.61634323,4.53171885 1.2377284,4.25084426 0.634197593,3.52101783 C0.463026011,3.31952698 0.32404308,3.09089467 0.222525471,2.84380124 L0,1.60497985 C1.32221854,2.4191697 2.38978448,1.48763605 3.42682272,0.0362823915 L3.45867168,0.213380591 L3.93473711,2.86494621 L3.44212135,3.48587242 Z" id="Path_8"></path>
                        </g>
                    </g>
                    <g id="Group-2-Copy" filter="url(#filter-14)" transform="translate(218.000000, 209.000000)">
                        <g id="Path_1" transform="translate(12.371523, 0.000000)">
                            <g id="path-3-link" transform="translate(0.017580, 0.018146)" fill="#50DFFF" fill-rule="nonzero">
                                <path d="M0,10.7683631 C0,10.6222553 0.0130804021,10.4764589 0.0391789873,10.3328558 L0.773373758,6.26582814 L1.29951425,3.35112497 C1.71124925,1.07155452 3.63205434,-0.387803348 5.59055498,0.0909107452 L3.77707448,10.1347351 L3.58498704,11.1994995 C3.52204984,11.5629837 3.37147793,11.9042676 3.14714983,12.1918945 C2.72888926,12.7221271 2.08848206,12.9886765 1.43939725,12.8296067 C0.986953464,12.712114 0.596270091,12.4181298 0.349490123,12.0094658 C0.119897522,11.6390109 -0.00142912955,11.2081264 0,10.7683631 L0,10.7683631 Z" id="path-3"></path>
                            </g>
                            <path d="M5.62847724,0.0954371212 C4.63852117,-0.151917558 3.65706691,0.0938497592 2.87214686,0.690210338 C2.09236998,1.28266329 1.50656395,2.22126659 1.29981177,3.36594993 L0.773670894,6.28065501 L0.0394761936,10.3476825 C0.0131813066,10.4923657 0,10.6392807 0,10.7865095 C-0.00144035241,11.2296942 0.120847486,11.6639911 0.352258349,12.0373797 C0.601335186,12.4498498 0.995829516,12.7467001 1.45268571,12.8653386 C1.77519056,12.9443758 2.09535082,12.9195588 2.38782486,12.8103425 C2.69046173,12.6973313 2.96347136,12.4939109 3.17836671,12.2214862 C3.40460491,11.9314107 3.55641802,11.5873142 3.61987391,11.2208344 L3.8119385,10.1561991 L5.62847724,0.0954371212 Z" id="Path" fill="url(#linearGradient-15)"></path>
                        </g>
                        <path d="M13.9423866,10.361086 C13.9163174,10.5045861 13.9032442,10.650278 13.9032442,10.7962811 C13.9016247,11.2358763 14.0226712,11.6666538 14.2519325,12.0370669 C14.4270022,12.3212683 14.6709681,12.5532874 14.9596444,12.7101228 C15.183974,12.5892755 15.3818389,12.4220834 15.5409445,12.2189351 C15.7650049,11.9315047 15.9154056,11.5904697 15.9782891,11.2272517 L16.1701605,10.1632505 L17.9807685,0.131208615 C16.6276145,0.471889481 15.5045396,1.70472746 15.2013038,3.38436003 L14.6757553,6.29683057 L13.9423866,10.361086 Z" id="Path_5" fill="url(#linearGradient-16)" fill-rule="nonzero"></path>
                        <path d="M17.9807685,0.131208615 C16.6276145,0.472556635 15.5045396,1.70780888 15.2013038,3.39073066 L14.6757553,6.3087612 L13.9423866,10.3808321 C13.9163174,10.5246133 13.9032442,10.6705906 13.9032442,10.8168795 C13.9016247,11.2573356 14.0226712,11.6889567 14.2519325,12.0600951" id="Path_6" fill="url(#linearGradient-17)" fill-rule="nonzero"></path>
                        <g id="Path_2">
                            <g id="path-7-link" transform="translate(0.020342, 0.018146)" fill="#50DFFF" fill-rule="nonzero">
                                <path d="M5.59055684,10.7683631 C5.59055684,10.6222553 5.57747264,10.4764589 5.55137409,10.3328558 L4.8171796,6.26582814 L4.29103925,3.35112497 C3.87930443,1.07155452 1.95849996,-0.387803348 0,0.0909107452 L1.81347988,10.1347351 L2.00556727,11.1994995 C2.06850443,11.5629837 2.2190763,11.9042676 2.44340433,12.1918945 C2.86166472,12.7221271 3.50207172,12.9886765 4.15115633,12.8296067 C4.6037282,12.7121976 4.99454817,12.4182042 5.24141017,12.0094658 C5.47088048,11.6389723 5.59208579,11.2080906 5.59055684,10.7683631 Z" id="path-7"></path>
                            </g>
                            <path d="M1.81653857,10.1562018 L2.00862547,11.2209636 C2.07205849,11.5873142 2.22387154,11.9314107 2.45004835,12.221408 C2.66500493,12.4939109 2.93801449,12.6973313 3.24065125,12.8103425 C3.53312519,12.9195588 3.85328536,12.9443758 4.1755618,12.8653962 C4.63277164,12.7467856 5.02740387,12.449926 5.27667353,12.0372011 C5.50785451,11.6639478 5.63002006,11.2296538 5.62847899,10.7864439 C5.62847899,10.6392807 5.61529401,10.4923657 5.58899522,10.3476609 L4.85480464,6.28065479 L4.32866432,3.36595184 C4.12191186,2.22126659 3.53610606,1.28266329 2.75632943,0.690210338 C1.97140964,0.0938497586 0.989955729,-0.151917559 0,0.0954371224 L1.81653857,10.1562018 Z" id="Path" fill="url(#linearGradient-18)"></path>
                        </g>
                        <path d="M4.05768207,10.361086 C4.08372846,10.5045884 4.09679824,10.6502803 4.09675576,10.7962811 C4.09837532,11.2358763 3.97732673,11.6666538 3.74806154,12.0370669 C3.57302365,12.3212984 3.32904498,12.5533257 3.04033758,12.7101228 C2.81602585,12.5892725 2.61818082,12.4220801 2.45909694,12.2189351 C2.23501741,11.9315145 2.08461234,11.5904752 2.0217449,11.2272517 L1.82980096,10.1633221 L0.0192314836,0.131208615 C1.37233919,0.471889481 2.49543314,1.70472746 2.7987434,3.38436003 L3.32423155,6.29697376 L4.05768207,10.361086 Z" id="Path_3" fill="url(#linearGradient-16)" fill-rule="nonzero"></path>
                        <path d="M0.0192314836,0.131208615 C1.37233919,0.472556635 2.49543314,1.70780888 2.7987434,3.39073066 L3.32423155,6.3087612 L4.05768207,10.3808321 C4.08372846,10.5246155 4.09679824,10.6705928 4.09675576,10.8168795 C4.09837532,11.2573356 3.97732673,11.6889567 3.74806154,12.0600951" id="Path_4" fill="url(#linearGradient-17)" fill-rule="nonzero"></path>
                        <path d="M15.9665397,11.316721 C15.9035501,11.681319 15.7528527,12.0236488 15.5283377,12.3121571 L15.4102239,12.4368562 C14.6673579,13.2197649 13.5508355,13.2042404 12.8302026,12.2777301 C12.0805276,11.313918 9.73722017,8.26795534 9.73722017,8.26795534 C9.56248893,8.02618415 9.28776574,7.88381813 8.99595212,7.88381813 C8.70413854,7.88381813 8.42941535,8.02618415 8.25468411,8.26795534 L5.12348841,12.3296941 C4.35797232,13.3277176 3.07984251,13.059417 2.52046965,12.3632586 C2.26857889,12.065999 2.09759106,11.7048237 2.02501718,11.316721 L1.49190727,8.35801174 C3.40680917,9.53672312 4.77665083,7.08751902 6.30365328,4.74317711 C7.65848754,2.66361404 10.4732078,2.62408409 11.8407567,4.75805476 C13.5592424,7.43947935 14.2772351,9.49769626 16.4995801,8.35801174 L15.9665397,11.316721 Z" id="Path_9" fill="url(#linearGradient-19)" fill-rule="nonzero"></path>
                        <path d="M4.88570823,10.1421859 L8.1964584,6.09221207 C8.38893216,5.84973389 8.67657092,5.70914891 8.98021083,5.70914891 C9.2838507,5.70914891 9.5714895,5.84973389 9.76396323,6.09221207 C9.76396323,6.09221207 12.2418203,9.12935202 13.0343181,10.0903725 C13.7962765,11.0141991 14.976833,11.0296069 15.762043,10.2490376 L15.886977,10.1246997 C16.0670558,9.90801157 16.2030221,9.65609479 16.2867657,9.38397586 L15.9440302,11.2864524 C15.8811049,11.6499943 15.7305613,11.9913326 15.5062755,12.2790052 L15.3882823,12.403343 C14.6461745,13.183984 13.5307918,13.1685045 12.8108945,12.2447496 C12.0619848,11.2836574 9.72106924,8.24651749 9.72106924,8.24651749 C9.54651636,8.00544664 9.27207361,7.86349297 8.98055786,7.86349297 C8.6890421,7.86349297 8.41459936,8.00544664 8.24004647,8.24651749 L5.11169989,12.2969213 C4.34696521,13.292054 3.07014005,13.0245306 2.51133817,12.3303886 C2.25970453,12.0339901 2.08889124,11.673861 2.01639143,11.2868824 L1.67067138,9.37107625 C1.76943936,9.66939118 1.92699807,9.94334131 2.13341292,10.1756532 C2.72483644,10.8697952 4.07627493,11.1373186 4.88570823,10.1421859 Z" id="Path_10" fill="url(#linearGradient-20)" fill-rule="nonzero"></path>
                        <path d="M1.67067138,9.37847451 C1.76937887,9.67761171 1.9269407,9.95232955 2.13341292,10.1852901 C2.72483644,10.8809298 4.07627493,11.1490304 4.88570823,10.1517506 L8.1964584,6.09303857 C8.38893216,5.85003722 8.67657092,5.70914891 8.98021083,5.70914891 C9.2838507,5.70914891 9.5714895,5.85003722 9.76396323,6.09303857 C9.76396323,6.09303857 12.2418203,9.13673145 13.0343181,10.0998254 C13.7962765,11.0256453 14.976833,11.0410863 15.762043,10.2588329 L15.886977,10.1342268 C16.0670558,9.91707106 16.2030221,9.66461071 16.2867657,9.39190466" id="Path_11" opacity="0.7" style="mix-blend-mode: overlay;"></path>
                        <g id="Group_1" opacity="0.61" style="mix-blend-mode: multiply;" transform="translate(1.389756, 6.069299)">
                            <path d="M15.2119747,1.60444176 L14.9846872,2.86113862 C14.9006894,3.07719006 14.7840894,3.27820338 14.6392018,3.45674042 L14.5114091,3.58650881 C13.7101666,4.4010903 12.5059391,4.3850394 11.7287534,3.42098425 C11.6105555,3.27437678 11.4555078,3.08133645 11.2772376,2.85891729 L11.7532968,0.225715311 L11.7941099,0 C12.7759169,1.57226837 13.6078212,2.42962827 15.2119747,1.60444176 Z" id="Path_7"></path>
                            <path d="M3.44212135,3.48587242 C2.61634323,4.53171885 1.2377284,4.25084426 0.634197593,3.52101783 C0.463026011,3.31952698 0.32404308,3.09089467 0.222525471,2.84380124 L0,1.60497985 C1.32221854,2.4191697 2.38978448,1.48763605 3.42682272,0.0362823915 L3.45867168,0.213380591 L3.93473711,2.86494621 L3.44212135,3.48587242 Z" id="Path_8"></path>
                        </g>
                    </g>
                </g>
                <g id="freepik--security-barrier--inject-2" transform="translate(40.904898, 555.715311)">
                    <polygon id="Path" stroke="#FFFFFF" stroke-width="0.25" fill="#263238" fill-rule="nonzero" points="77.8593222 383.283457 42.2050533 383.283457 89.7357442 51.9579244 125.390013 51.9579244"></polygon>
                    <polygon id="Path" stroke="#263238" stroke-width="2.91585835" fill="#FFFFFF" fill-rule="nonzero" points="149.16786 383.283457 184.797126 383.283457 137.266435 51.9579244 101.637169 51.9579244"></polygon>
                    <polygon id="Path" stroke="#FFFFFF" stroke-width="0.25" fill="#263238" fill-rule="nonzero" points="583.694887 383.283457 548.065621 383.283457 595.571309 51.9579244 631.225578 51.9579244"></polygon>
                    <polygon id="Path" stroke="#263238" stroke-width="2.91585835" fill="#FFFFFF" fill-rule="nonzero" points="655.003425 383.283457 690.632691 383.283457 643.102 51.9579244 607.472734 51.9579244"></polygon>
                    <rect id="Rectangle" stroke="#263238" stroke-width="2.91585835" fill="#50DFFF" fill-rule="nonzero" x="0" y="0" width="679.906406" height="65.9100524"></rect>
                    <rect id="Rectangle" stroke="#263238" stroke-width="2.91585835" fill="#50DFFF" fill-rule="nonzero" x="16.5769848" y="0" width="679.906406" height="65.9100524"></rect>
                    <polygon id="Path" fill="#263238" fill-rule="nonzero" points="27.703317 65.9100524 85.4102263 65.9100524 115.238798 0 57.5318884 0"></polygon>
                    <polygon id="Path" fill="#263238" fill-rule="nonzero" points="256.130667 0 198.423758 0 168.595186 65.9100524 226.302096 65.9100524"></polygon>
                    <polygon id="Path" fill="#263238" fill-rule="nonzero" points="678.781272 0 621.074362 0 591.270794 65.9100524 648.977703 65.9100524"></polygon>
                    <polygon id="Path" fill="#263238" fill-rule="nonzero" points="537.914405 0 480.182493 0 450.378925 65.9100524 508.085834 65.9100524"></polygon>
                    <polygon id="Path" fill="#263238" fill-rule="nonzero" points="397.022536 0 339.315627 0 309.487055 65.9100524 367.193965 65.9100524"></polygon>
                    <line x1="692.757945" y1="29.229458" x2="580.244474" y2="29.229458" id="Path" stroke="#263238" stroke-width="2.91585835"></line>
                    <line x1="690.782709" y1="40.2561397" x2="673.030583" y2="40.2561397" id="Path" stroke="#263238" stroke-width="2.91585835"></line>
                    <line x1="13.7016405" y1="37.5057202" x2="126.215112" y2="37.5057202" id="Path" stroke="#263238" stroke-width="2.91585835"></line>
                    <line x1="15.676877" y1="25.1038287" x2="157.793893" y2="25.1038287" id="Path" stroke="#263238" stroke-width="2.91585835"></line>
                    <rect id="Rectangle" stroke="#263238" stroke-width="2" fill="#FC6076" fill-rule="nonzero" stroke-linecap="round" stroke-linejoin="round" x="689.182517" y="368.831253" width="192.873093" height="14.477208"></rect>
                    <polygon id="Path" fill="url(#linearGradient-21)" points="849.501712 368.431192 721.736415 368.431192 771.817411 95.98964 799.420716 95.98964"></polygon>
                    <polygon id="Path" stroke="#263238" stroke-width="2.91585835" fill="#FFFFFF" fill-rule="nonzero" stroke-linecap="round" stroke-linejoin="round" points="753.215184 197.255085 818.047946 197.255085 811.822201 163.499936 759.415926 163.499936"></polygon>
                    <line x1="830.299413" y1="322.949255" x2="833.499796" y2="341.577096" id="Path" stroke="#263238" stroke-width="2.91585835" fill="#50DFFF" fill-rule="nonzero" stroke-linecap="round" stroke-linejoin="round"></line>
                    <line x1="793.820046" y1="111.041936" x2="826.273931" y2="299.520682" id="Path" stroke="#263238" stroke-width="2.91585835" fill="#50DFFF" fill-rule="nonzero" stroke-linecap="round" stroke-linejoin="round"></line>
                </g>
                <g id="freepik--Floor--inject-2" transform="translate(0.000000, 937.748578)" stroke="#FFFFFF" stroke-linecap="round" stroke-linejoin="round" stroke-width="2.91585835">
                    <line x1="1026.72293" y1="1.25019067" x2="1044" y2="1.25019067" id="Path"></line>
                    <line x1="0" y1="1.25019067" x2="1002.59504" y2="1.25019067" id="Path"></line>
                </g>
            </g>
        </g>
    </g>
</svg>