<?xml version="1.0" encoding="UTF-8"?>
<svg width="129px" height="66px" viewBox="0 0 129 66" version="1.1" xmlns="http://www.w3.org/2000/svg" xmlns:xlink="http://www.w3.org/1999/xlink">
    <title>Group 3</title>
    <defs>
        <filter x="-12.3%" y="-2.9%" width="125.2%" height="106.6%" filterUnits="objectBoundingBox" id="filter-1">
            <feOffset dx="1" dy="0" in="SourceAlpha" result="shadowOffsetOuter1"></feOffset>
            <feGaussianBlur stdDeviation="5" in="shadowOffsetOuter1" result="shadowBlurOuter1"></feGaussianBlur>
            <feColorMatrix values="0 0 0 0 0   0 0 0 0 0   0 0 0 0 0  0 0 0 0.25 0" type="matrix" in="shadowBlurOuter1" result="shadowMatrixOuter1"></feColorMatrix>
            <feMerge>
                <feMergeNode in="shadowMatrixOuter1"></feMergeNode>
                <feMergeNode in="SourceGraphic"></feMergeNode>
            </feMerge>
        </filter>
    </defs>
    <g id="Symbols" stroke="none" stroke-width="1" fill="none" fill-rule="evenodd">
        <g id="Footer" transform="translate(-149.000000, -1149.000000)" filter="url(#filter-1)">
            <g transform="translate(31.000000, 1113.000000)">
                <g id="Powered-by" transform="translate(30.000000, 52.000000)">
                    <g id="Group-3" transform="translate(104.070556, 0.000000)">
                        <g id="Group-2" fill="#231F20">
                            <g id="Path_1" transform="translate(32.557016, 0.000000)">
                                <path d="M0.0524490099,27.9002114 C0.0513524981,27.5228533 0.0862194221,27.1462414 0.15661326,26.7754504 L2.07903106,16.2776814 L3.46477389,8.74736676 C4.5461339,2.86031996 9.58447055,-0.904837336 14.7269382,0.331602032 L9.96895411,26.2649206 L9.46431944,29.0169954 C9.29837374,29.9523935 8.90205908,30.8322002 8.31086876,31.5776214 C7.27760942,32.961191 5.52093807,33.6058803 3.8332373,33.2208892 C2.63749025,32.9148778 1.6087285,32.1565059 0.96563075,31.1069767 C0.365269315,30.1503768 0.0487122376,29.0442326 0.0524490099,27.9161655 L0.0524490099,27.9002114 Z" id="path-3"></path>
                                <path d="M14.7830087,0.291716891 C12.2698583,-0.307962331 9.61920594,0.258110303 7.57394193,1.83128333 C5.37616115,3.53602643 3.90341509,6.00231064 3.44875374,8.73938973 L2.07102098,16.2617273 L0.140593112,26.7674734 C0.0698374174,27.1409023 0.0349695467,27.5201955 0.0364161899,27.9002114 C0.0342977667,29.0427912 0.356396939,30.1627221 0.96563075,31.1309078 C1.6065243,32.1939934 2.64279223,32.9622547 3.84925745,33.2687514 C4.66455669,33.4709111 5.52235996,33.4208239 6.30835022,33.1251649 C7.12535412,32.8171168 7.8425955,32.2931258 8.38295942,31.6095295 C8.97776531,30.8572308 9.37427079,29.968774 9.53641619,29.0249724 L10.0410448,26.2728977 L14.7830087,0.291716891 Z" id="Path"></path>
                            </g>
                            <path d="M36.6786156,26.8073586 C36.6114838,27.1785981 36.5766443,27.5549143 36.5744729,27.9321195 C36.5722391,29.0610911 36.8916585,30.1675314 37.4956432,31.1229308 C37.9465533,31.8586625 38.5886001,32.4594761 39.3539804,32.8619229 C39.9443644,32.5491863 40.462718,32.1171958 40.8758945,31.5935755 C41.4701301,30.8509144 41.8643662,29.9696017 42.0213351,29.0329494 L42.5259698,26.2888517 L47.2839538,0.363510145 C43.7274809,1.24896027 40.7797736,4.43179452 39.9867763,8.77129784 L38.6090435,16.2936354 L36.6786156,26.8073586 Z" id="Path_5"></path>
                            <path d="M47.2839538,0.371487173 C43.7274809,1.2569373 40.7797736,4.44774857 39.9867763,8.79522893 L38.6090435,16.3335206 L36.6786156,26.8472437 C36.6118439,27.2212166 36.577009,27.6001512 36.5744826,27.9799817 C36.5735507,29.1087702 36.8928675,30.214855 37.4956432,31.170793" id="Path_6"></path>
                            <g id="Path_2">
                                <path d="M14.7952003,27.9002114 C14.7962228,27.5228533 14.7613559,27.1462414 14.6909621,26.7754504 L12.7685443,16.2776814 L11.3908115,8.74736676 C10.3094515,2.86031996 5.26310478,-0.904837336 0.120637163,0.331602032 L4.88663129,26.2649206 L5.39126596,29.0169954 C5.55420731,29.9518477 5.94780912,30.8317424 6.53670657,31.5776214 C7.57258283,32.9625287 9.33223295,33.6071581 11.0223481,33.2208892 C12.2147604,32.9122431 13.2401026,32.1542747 13.8819446,31.1069767 C14.4852194,30.1457843 14.801894,29.0336967 14.7952003,27.9002114 L14.7952003,27.9002114 Z" id="path-7"></path>
                                <path d="M4.83857084,26.2728977 L5.34320552,29.0249724 C5.50835595,29.9693225 5.9075744,30.857689 6.50466627,31.6095295 C7.04124837,32.2970103 7.75968656,32.8218755 8.57927548,33.1251649 C9.36240687,33.4211831 10.2177783,33.4712915 11.0303582,33.2687514 C12.2360405,32.9563137 13.2727843,32.1898287 13.9219949,31.1309078 C14.7232546,29.8257351 15.0087447,28.270547 14.7230024,26.7674734 L12.8005846,16.2617273 L11.4148417,8.73938973 C10.9601804,6.00231064 9.48743432,3.53602643 7.28965354,1.83128333 C5.24539395,0.25595591 2.59370811,-0.310337435 0.0805867921,0.291716891 L4.83857084,26.2728977 Z" id="Path"></path>
                            </g>
                            <path d="M10.7259754,26.8073586 C10.7971022,27.1780467 10.8319756,27.554729 10.8301777,27.9321195 C10.8312823,29.0598286 10.5149254,30.1652732 9.91695786,31.1229308 C9.46180661,31.8552203 8.82081481,32.4550467 8.05862066,32.8619229 C7.46535033,32.5501062 6.94419811,32.1180573 6.52869649,31.5935755 C5.93863647,30.8483952 5.54489801,29.9681951 5.38325589,29.0329494 L4.87862122,26.2888517 L0.120637163,0.363510145 C3.67711009,1.24896027 6.62481738,4.43179452 7.41781472,8.77129784 L8.80355755,16.2936354 L10.7259754,26.8073586 Z" id="Path_3"></path>
                            <path d="M0.120637163,0.371487173 C3.67711009,1.2569373 6.62481738,4.44774857 7.41781472,8.79522893 L8.80355755,16.3335206 L10.7259754,26.8472437 C10.796731,27.2206726 10.8315989,27.5999658 10.8301523,27.9799817 C10.8300019,29.1075129 10.5137433,30.2126143 9.91695786,31.170793" id="Path_4"></path>
                            <path d="M42.005315,29.2722603 C41.8439382,30.21242 41.4503116,31.0978526 40.8598744,31.8488404 L40.5474815,32.1679215 C39.6709812,33.1599444 38.3838115,33.6936034 37.0593652,33.6140903 C35.7349189,33.5345772 34.5214453,32.8507921 33.7709587,31.7610931 C31.8004805,29.2722603 25.6487435,21.3909564 25.6487435,21.3909564 C25.1968183,20.7693148 24.4729335,20.4012383 23.7022955,20.4012383 C22.9316574,20.4012383 22.2077727,20.7693148 21.7558475,21.3909564 L13.5375114,31.8887255 C12.7229517,32.9392357 11.4711473,33.5616408 10.1385007,33.5787352 C8.80585417,33.5958297 7.53836741,33.0057405 6.69690805,31.9764728 C6.03579359,31.2026514 5.58855737,30.2706292 5.39927604,29.2722603 L3.99751306,21.6701524 C9.02783963,24.7094001 12.6243629,18.3915938 16.6374101,12.3370294 C18.1774669,9.80501573 20.9339952,8.25833619 23.9065524,8.25833619 C26.8791095,8.25833619 29.6356379,9.80501573 31.1756947,12.3370294 C35.6853664,19.2610899 37.583754,24.5817677 43.4070779,21.6382443 L42.005315,29.2722603 Z" id="Path_9"></path>
                            <path d="M12.9047155,26.2409896 L21.6036561,15.7831056 C22.1020237,15.1572409 22.8601672,14.7923697 23.6622451,14.7923697 C24.4643231,14.7923697 25.2224665,15.1572409 25.7208342,15.7831056 C25.7208342,15.7831056 32.2250144,23.6245243 34.3076337,26.1053801 C35.1431344,27.2002869 36.4177012,27.8765099 37.7962585,27.9562745 C39.1748158,28.036039 40.5194445,27.5113648 41.4766501,26.5201855 L41.8050631,26.1931274 C42.276888,25.632229 42.6334179,24.9844495 42.8543828,24.2866177 L41.9492444,29.19249 C41.7878965,30.1302408 41.3941972,31.013095 40.8038038,31.7610931 L40.4914109,32.0801742 C39.6164717,33.07205 38.3304891,33.6057724 37.0071881,33.526234 C35.6838872,33.4466957 34.4716973,32.762818 33.7228983,31.6733457 C31.75242,29.19249 25.6086931,21.3510713 25.6086931,21.3510713 C25.156768,20.7294297 24.4328832,20.3613531 23.6622451,20.3613531 C22.8916071,20.3613531 22.1677223,20.7294297 21.7157971,21.3510713 L13.497461,31.8009782 C12.6843525,32.8482964 11.4356658,33.4687013 10.106443,33.4857919 C8.77722026,33.5028824 7.51286629,32.914789 6.67287783,31.8887255 C6.0082257,31.1223312 5.55791692,30.1951656 5.36723574,29.200467 L4.46209736,24.2547095 C4.71941294,25.022526 5.13400655,25.7287735 5.67962863,26.3287369 C6.60477317,27.353453 7.92852146,27.9313507 9.3121286,27.9145471 C10.6957358,27.8977434 12.004939,27.287869 12.9047155,26.2409896 L12.9047155,26.2409896 Z" id="Path_10"></path>
                            <g id="Group_1" opacity="0.61" transform="translate(3.720749, 15.655549)" fill-rule="nonzero">
                                <path d="M39.9666818,4.21977218 L39.3659263,7.46642264 C39.1452509,8.02034438 38.8399343,8.53697233 38.4607879,8.99801205 L38.1243648,9.33304724 C37.1616475,10.3701674 35.7833386,10.9237183 34.3674933,10.841867 C32.951648,10.7600158 31.6469146,10.0513558 30.8111671,8.91026474 L29.6016459,7.45844562 L30.8512174,0.662017608 L30.9633585,0.0796945505 C33.606683,4.14000189 35.7453728,6.3496387 39.9666818,4.21977218 Z" id="Path_7"></path>
                                <path d="M9.04779558,9.07778234 C8.14778234,10.177503 6.80424906,10.8229215 5.37976294,10.8398648 C3.95527682,10.856808 2.59664796,10.2435296 1.67051728,9.16552965 C1.21880172,8.64437641 0.853733396,8.0545977 0.589157265,7.41856047 L0.00442185089,4.2277492 C3.47278396,6.33368464 6.27630992,3.92462213 9.00774521,0.183395917 L9.08784595,0.638086523 L10.3374175,7.4823767 L9.04779558,9.07778234 Z" id="Path_8"></path>
                            </g>
                        </g>
                        <g id="WuuD-Team" transform="translate(50.610583, 11.097965)" fill-rule="nonzero">
                            <polygon id="Path" fill="#231F20" points="7.00797291 -1.77635684e-14 7.8697422 -1.77635684e-14 6.16246342 6.24151967 5.34947352 6.24151967 3.97552059 2.12275035 3.97552059 2.12275035 2.59343777 6.24151967 1.78044787 6.24151967 -3.83693077e-13 -1.77635684e-14 0.853639391 -1.77635684e-14 2.12190363 4.91084035 2.12190363 4.91084035 3.51211635 0.847515996 4.27632686 0.847515996 5.69905917 4.91084035 5.69905917 4.91084035"></polygon>
                            <path d="M12.0759837,6.36906284 L11.2503041,6.36906284 L11.2503041,5.74945056 L11.2503041,5.74945056 C11.1052986,5.97886298 10.9033137,6.16673044 10.6640716,6.29470937 C10.4110194,6.43399626 10.1272023,6.50783072 9.83839198,6.50950829 C9.37355942,6.53929406 8.9177718,6.3712767 8.58335898,6.04686446 C8.26849882,5.67499139 8.11144675,5.19467211 8.14574879,4.70850194 L8.14574879,1.91611594 L8.97142839,1.91611594 L8.97142839,4.65893295 C8.93607771,4.95910261 9.04068514,5.25885903 9.25508855,5.47177153 C9.46949196,5.68468404 9.76985875,5.78708576 10.0695823,5.74945056 C10.3921269,5.74765025 10.6961933,5.5985729 10.8952619,5.34463721 C11.1195765,5.07307351 11.2396246,4.73030209 11.2337905,4.37804205 L11.2337905,1.89959294 L12.0594701,1.89959294 L12.0759837,6.36906284 Z" id="Path" fill="#231F20"></path>
                            <path d="M16.8249661,6.36856498 L16.0008051,6.36856498 L16.0008051,5.74902173 L16.0008051,5.74902173 C15.8585151,5.98043435 15.6562901,6.16885073 15.4156508,6.29421979 C15.1631945,6.4338198 14.8798146,6.50766816 14.5914898,6.50899479 C14.1247144,6.5411607 13.6662932,6.37298642 13.3305235,6.04640249 C13.0200471,5.67245117 12.8637982,5.1937609 12.8937182,4.70818905 L12.8937182,1.9161141 L13.7178791,1.9161141 L13.7178791,4.65862559 C13.6825935,4.95876181 13.7870085,5.25848484 14.0010176,5.47137363 C14.2150267,5.68426242 14.514841,5.78665273 14.8140133,5.74902173 C15.1362511,5.74844976 15.4402646,5.59914033 15.6381743,5.34425346 C15.8653807,5.07460109 15.9856567,4.73058452 15.9760803,4.37776598 L15.9760803,1.89959294 L16.8002412,1.89959294 L16.8249661,6.36856498 Z" id="Path" fill="#231F20"></path>
                            <path d="M17.9104478,6.23921606 L17.9104478,0.00338878085 L19.8519229,0.00338878085 C20.7181966,-0.0363963712 21.5630044,0.275520935 22.1881378,0.865958799 C23.3592684,2.14946416 23.3592684,4.09314069 22.1881378,5.37664605 C21.5589674,5.96076579 20.7169977,6.27163526 19.8519229,6.23921606 L17.9104478,6.23921606 Z M18.7160391,0.770996962 L18.7160391,5.47160788 L19.843867,5.47160788 C20.4892729,5.50803815 21.1214956,5.28194335 21.5920002,4.84644246 C22.4414826,3.84771281 22.4414826,2.39489204 21.5920002,1.39616239 C21.1214956,0.960661496 20.4892729,0.7345667 19.843867,0.770996962 L18.7160391,0.770996962 Z" id="Shape" fill="#231F20"></path>
                            <polygon id="Path" fill="#6D6E71" points="27.6652631 0.789066963 27.6652631 6.24151967 26.8641696 6.24151967 26.8641696 0.789066963 25.1017639 0.789066963 25.1017639 -1.77635684e-14 29.4436906 -1.77635684e-14 29.4436906 0.789066963"></polygon>
                            <path d="M31.3062655,6.37478244 C30.7264445,6.40409114 30.163541,6.16629086 29.7666796,5.72437969 C29.3648992,5.27793386 29.1514047,4.68215272 29.173939,4.07026899 C29.1559412,3.46448834 29.3627571,2.87483086 29.7512837,2.42418796 C30.1227741,1.98704767 30.6618911,1.74562005 31.2215883,1.76575554 C31.7758141,1.74080241 32.3128486,1.96956599 32.6918928,2.3920693 C33.0799622,2.87919907 33.2754161,3.50231526 33.2384458,4.1345063 L33.2384458,4.2228326 L29.9745237,4.2228326 C29.9713061,4.60660859 30.1187159,4.97505763 30.382514,5.24259988 C30.6840891,5.55325144 31.1112247,5.69231578 31.5286643,5.61575689 C31.946104,5.53919799 32.3021469,5.25649781 32.4840487,4.85717602 L33.1768624,5.21048122 C32.999754,5.56442434 32.7336501,5.86142575 32.4070694,6.06965523 C32.0725689,6.27139227 31.6926485,6.3767008 31.3062655,6.37478244 Z M30.0592009,3.54834086 L32.4378611,3.54834086 C32.4199017,3.26015752 32.292442,2.99136243 32.0837564,2.80158214 C31.846723,2.59618738 31.5448352,2.49026735 31.2369841,2.50448459 C30.9548041,2.49732288 30.6802454,2.60042347 30.4671912,2.79355248 C30.2618906,2.99454314 30.1242107,3.25924182 30.0745968,3.54834086 L30.0592009,3.54834086 Z" id="Shape" fill="#6D6E71"></path>
                            <path d="M35.8546807,1.76747478 C36.3877223,1.73829208 36.9116731,1.91094231 37.3165821,2.24919489 C37.6856993,2.59020638 37.8820049,3.07166842 37.8534385,3.56589655 L37.8534385,6.2394432 L37.0275055,6.2394432 L37.0275055,5.63729305 L37.0275055,5.63729305 C36.7325059,6.10129389 36.2093013,6.38147682 35.6481974,6.37593056 C35.1970085,6.39286378 34.7563948,6.24051245 34.4175572,5.95041113 C34.0959758,5.68819292 33.9137842,5.29856525 33.9219974,4.89062687 C33.9081519,4.47394905 34.1018948,4.07635889 34.4423352,3.82281394 C34.8485158,3.54213194 35.3405231,3.40346286 35.838162,3.42940918 C36.2622392,3.41451677 36.6831445,3.50574628 37.0605428,3.69435524 L37.0605428,3.50969587 C37.0666168,3.23130279 36.9419855,2.96536243 36.7219103,2.78711569 C36.4962918,2.58829326 36.2003901,2.4818672 35.8959773,2.49005495 C35.4480741,2.47981787 35.0276631,2.69940173 34.7892271,3.06811909 L34.0458874,2.61851365 C34.4554913,2.04830949 35.1405108,1.7260072 35.8546807,1.76747478 Z M34.7727084,4.89062687 C34.7753003,5.10037657 34.8793407,5.29669706 35.0535256,5.420519 C35.2401345,5.56045733 35.4703815,5.63411855 35.7060127,5.62926438 C36.055904,5.62694516 36.3909397,5.49148571 36.639317,5.25191696 C36.9029933,5.02682833 37.0535857,4.70184965 37.0522919,4.36073474 C36.7357792,4.14019077 36.3507418,4.03244225 35.9620519,4.05564533 C35.6673353,4.04806447 35.377874,4.1324777 35.1361189,4.29650539 C34.9167909,4.41949306 34.7791148,4.64457274 34.7727084,4.89062687 L34.7727084,4.89062687 Z" id="Shape" fill="#6D6E71"></path>
                            <path d="M39.6016963,6.3607876 L38.8059701,6.3607876 L38.8059701,1.93632842 L39.6016963,1.93632842 L39.6016963,2.51914215 L39.6016963,2.51914215 C39.7390771,2.28918438 39.934325,2.10195253 40.1666619,1.97737164 C40.4092038,1.83555837 40.6836032,1.76196068 40.962388,1.76390773 C41.2418946,1.76445857 41.516341,1.84090005 41.7581142,1.98558029 C41.9908687,2.13327276 42.1741575,2.35100036 42.2832934,2.60943724 C42.6011762,2.08502636 43.1639784,1.7728855 43.7633441,1.78857283 C44.1941334,1.75839559 44.6151312,1.93030514 44.9091898,2.25646554 C45.2002754,2.63531288 45.3448667,3.11203733 45.3150101,3.59447453 L45.3150101,6.3607876 L44.5192839,6.3607876 L44.5192839,3.71760419 C44.5469395,3.40180226 44.4682545,3.08581593 44.2964806,2.82286199 C44.1063553,2.61973647 43.8368942,2.51700698 43.5644126,2.54376809 C43.250128,2.53838612 42.9530834,2.6916005 42.7686864,2.95420029 C42.5583717,3.22687665 42.4459218,3.56618337 42.4503959,3.91461165 L42.4503959,6.37720488 L41.6546698,6.37720488 L41.6546698,3.73402148 C41.680879,3.41947607 41.6053274,3.10483593 41.4398237,2.83927927 C41.2459639,2.63685565 40.9745068,2.53447802 40.6997984,2.56018537 C40.385821,2.55619042 40.0893606,2.70910348 39.9040722,2.97061758 C39.6960228,3.24407015 39.5863465,3.58349364 39.593739,3.93102894 L39.6016963,6.3607876 Z" id="Path" fill="#6D6E71"></path>
                        </g>
                        <text id="Developers-by-Passio" font-family="Helvetica" font-size="3.5" font-weight="normal" fill="#000000">
                            <tspan x="56.9294437" y="22.6">Developers by Passion</tspan>
                        </text>
                    </g>
                </g>
            </g>
        </g>
    </g>
</svg>