<svg xmlns="http://www.w3.org/2000/svg" xmlns:xlink="http://www.w3.org/1999/xlink" width="2067" height="594" viewBox="0 0 2067 594">
    <defs>
        <path id="trbtybsaha" d="M117.336 287.574L117.336 35.344 197.704 35.344 197.704 0 0 0 0 35.344 80.367 35.344 80.367 287.574z"/>
        <path id="z2li8321zb" d="M283.697 84.344c29.2 0 52.44 9.439 69.718 28.316 17.28 18.877 25.919 45.318 25.919 79.324l-.402 4.016H224.225l.023.74c.678 18.936 7.1 34.22 19.265 45.85 12.323 11.782 27.057 17.672 44.202 17.672 23.574 0 42.059-11.781 55.453-35.344l32.95 16.066-.437.813c-8.805 16.213-20.915 28.928-36.33 38.146C323.679 289.314 305.93 294 286.108 294c-28.933 0-52.775-9.907-71.527-29.721-18.753-19.815-28.129-44.85-28.129-75.107 0-29.989 9.108-54.958 27.325-74.906 18.217-19.948 41.523-29.922 69.92-29.922zm-.804 33.738c-13.93 0-25.919 4.284-35.964 12.852-10.046 8.569-16.677 20.082-19.891 34.541h112.916c-1.072-13.655-6.63-24.968-16.677-33.938-10.045-8.97-23.507-13.455-40.384-13.455z"/>
        <path id="2pybmjp8fc" d="M489.839 84.344c27.325 0 48.89 7.297 64.695 21.89 15.806 14.593 23.709 34.608 23.709 60.045v121.295H542.88v-27.312h-1.607l-.46.672C525.596 282.978 505.39 294 480.194 294c-21.699 0-39.848-6.426-54.448-19.279-14.6-12.852-21.9-28.918-21.9-48.196 0-20.35 7.702-36.55 23.105-48.599 15.404-12.049 35.965-18.074 61.682-18.074 21.967 0 40.05 4.017 54.248 12.05v-8.435l-.004-.592c-.154-12.596-5.242-23.31-15.266-32.141-10.18-8.97-22.1-13.455-35.763-13.455-20.628 0-36.97 8.702-49.024 26.106l-32.549-20.483.541-.768c17.939-25.193 44.28-37.79 79.023-37.79zm4.822 105.23c-15.002 0-27.526 3.615-37.572 10.844-10.046 7.23-15.069 16.2-15.069 26.91 0 9.64 4.085 17.672 12.256 24.098 8.17 6.426 17.748 9.64 28.731 9.64 15.538 0 29.401-5.757 41.59-17.27 12.19-11.515 18.284-25.036 18.284-40.566-11.52-9.104-27.593-13.656-48.22-13.656z"/>
        <path id="2sodyhx7gd" d="M657.003 287.574V178.73c0-16.334 4.822-30.525 14.466-42.574 9.644-12.05 21.565-18.074 35.763-18.074 15.806 0 27.057 4.083 33.754 12.25 6.698 8.167 10.046 21.488 10.046 39.963v117.279h36.97V178.73c0-16.334 4.821-30.525 14.465-42.574 9.644-12.05 21.566-18.074 35.764-18.074 15.805 0 27.057 4.083 33.754 12.25 6.697 8.167 10.046 21.488 10.046 39.963v117.279H919V164.672c0-25.705-6.161-45.519-18.484-59.442-12.323-13.924-29.87-20.886-52.641-20.886-28.932 0-51.57 12.585-67.91 37.754-5.09-11.781-13.127-21.019-24.11-27.713-10.984-6.694-23.709-10.04-38.175-10.04-11.52 0-23.106 3.212-34.759 9.639-11.653 6.426-20.293 14.459-25.918 24.098h-1.608V90.77h-35.361v196.804h36.969z"/>
    </defs>
    <g fill="none" fill-rule="evenodd">
        <g fill-rule="nonzero">
            <g>
                <path fill="#FFF" d="M117.805 287.574L179.723 98h1.609l61.918 189.574h37.794L357.839 0H319.24l-57.495 226.123h-1.608l-62.32-187.566h-34.578l-62.32 187.566H99.31L38.598 0H0l80.011 287.574h37.794zM448.303 294c12.598 0 24.727-3.213 36.387-9.64 11.66-6.426 20.305-14.458 25.934-24.098h1.608v27.312h35.382V90.77h-36.99v108.845c0 16.6-4.96 30.859-14.877 42.774-9.917 11.916-22.248 17.873-36.99 17.873-31.63 0-47.846-16.065-48.65-48.196V90.77h-36.99v123.705c0 25.438 6.5 45.051 19.5 58.84 13 13.79 31.562 20.685 55.686 20.685zm217.92 0c12.598 0 24.727-3.213 36.387-9.64 11.66-6.426 20.304-14.458 25.933-24.098h1.608v27.312h35.382V90.77h-36.99v108.845c0 16.6-4.959 30.859-14.876 42.774-9.918 11.916-22.248 17.873-36.99 17.873-31.63 0-47.846-16.065-48.65-48.196V90.77h-36.99v123.705c0 25.438 6.5 45.051 19.5 58.84 13 13.79 31.562 20.685 55.686 20.685zm238.827-6.426c43.96 0 79.274-13.187 105.944-39.562 26.67-26.374 40.006-61.116 40.006-104.225 0-42.842-13.335-77.517-40.006-104.025C984.324 13.254 949.01 0 905.05 0h-88.052v287.574h88.052zm0-35.344h-51.062V35.344h51.062c33.506 0 59.908 9.64 79.207 28.918 19.3 19.279 28.949 45.787 28.949 79.525 0 34.005-9.65 60.58-28.949 79.725-19.3 19.145-45.701 28.718-79.207 28.718z" transform="translate(-412 -189) translate(412 189)"/>
                <g fill="#6D6E71">
                    <g transform="translate(-412 -189) translate(412 189) translate(1148)">
                        <use xlink:href="#trbtybsaha"/>
                        <use xlink:href="#trbtybsaha"/>
                    </g>
                    <g transform="translate(-412 -189) translate(412 189) translate(1148)">
                        <use xlink:href="#z2li8321zb"/>
                        <use xlink:href="#z2li8321zb"/>
                    </g>
                    <g transform="translate(-412 -189) translate(412 189) translate(1148)">
                        <use xlink:href="#2pybmjp8fc"/>
                        <use xlink:href="#2pybmjp8fc"/>
                    </g>
                    <g transform="translate(-412 -189) translate(412 189) translate(1148)">
                        <use xlink:href="#2sodyhx7gd"/>
                        <use xlink:href="#2sodyhx7gd"/>
                    </g>
                </g>
                <path fill="#FFF" d="M340.175 591.822V442.178H332v149.644h8.175zm33.219 0V527.63c0-22.297 14.073-37.852 35.08-37.852 19.973 0 33.115 12.548 33.115 33.392v68.652h8.072v-69.585c0-24.37-15.626-39.718-39.324-39.718-18.316 0-32.183 9.955-37.254 25.096h-.207V483.97h-7.554v107.852h8.072zM573.53 594c31.563 0 55.26-18.978 58.676-47.393h-8.176c-3.208 24.06-24.215 39.719-50.5 39.719-34.77 0-57.33-27.17-57.33-70.207 0-42 22.25-68.445 57.33-68.445 25.664 0 47.292 18.356 50.5 42.415h8.176C629.102 461.57 603.852 440 573.53 440c-40.151 0-65.712 29.556-65.712 76.119 0 47.6 25.664 77.881 65.712 77.881zm119.007-.726c28.768 0 48.016-21.467 48.016-55.378 0-34.015-19.248-55.377-48.016-55.377-28.665 0-47.913 21.362-47.913 55.377 0 33.911 19.144 55.378 47.913 55.378zm0-7.26c-24.112 0-39.842-18.355-39.842-48.118 0-29.659 15.73-48.118 39.842-48.118 24.111 0 39.944 18.355 39.944 48.118 0 29.66-15.833 48.119-39.944 48.119zm106.795 7.26c19.972 0 35.598-12.963 40.566-30.385h.31v28.933h7.554V442.178h-8.071v70.103h-.207c-4.76-16.8-20.283-29.762-40.255-29.762-26.803 0-45.74 22.4-45.74 55.377 0 32.874 19.04 55.378 45.843 55.378zm1.035-7.26c-22.767 0-38.807-19.495-38.807-48.221 0-28.623 16.04-48.015 38.807-48.015 23.077 0 39.427 19.703 39.427 48.118 0 28.415-16.35 48.119-39.427 48.119zm114.867 7.26c23.905 0 40.462-13.378 43.98-31.63h-8.071c-3.208 14-16.144 24.475-35.806 24.475-24.008 0-39.944-17.215-39.944-46.46v-.415h85.167v-4.563c0-31.318-18.317-52.162-46.154-52.162-28.458 0-47.189 21.985-47.189 55.481 0 34.74 18.834 55.274 48.017 55.274zm37.047-60.77h-76.785c1.138-25.719 16.558-42.83 38.807-42.83 22.662 0 37.875 17.319 37.978 42.83zm107.934 59.318l39.738-134.296h.517l39.738 134.296h7.244l41.704-149.644h-8.59l-36.736 135.437h-.518l-39.324-135.437h-7.657l-39.22 135.437h-.518l-36.84-135.437h-8.486l41.704 149.644h7.244zm176.44 1.452c23.904 0 40.462-13.378 43.98-31.63h-8.071c-3.208 14-16.144 24.475-35.806 24.475-24.008 0-39.945-17.215-39.945-46.46v-.415h85.168v-4.563c0-31.318-18.317-52.162-46.154-52.162-28.458 0-47.189 21.985-47.189 55.481 0 34.74 18.834 55.274 48.017 55.274zm37.047-60.77h-76.785c1.138-25.719 16.557-42.83 38.806-42.83 22.663 0 37.875 17.319 37.979 42.83zm117.35 59.318V449.748h52.26v-7.57h-112.798v7.57h52.363v142.074h8.176zm55.571 0V524.83c0-20.223 10.452-34.637 27.424-34.637 5.07 0 8.9 1.037 11.176 2.177v-8.089c-2.07-.83-5.795-1.762-10.038-1.762-14.28 0-24.526 8.088-28.872 22.71h-.207V483.97h-7.554v107.852h8.071zm91.584 1.452c17.799 0 32.907-10.474 37.668-24.993h.31v23.541h7.554V483.97h-8.071v64.504c0 22.815-15.42 37.54-35.806 37.54-19.558 0-32.494-12.236-32.494-33.288V483.97h-7.968v70c0 24.06 15.626 39.304 38.807 39.304zm104 0c23.181 0 39.946-12.237 39.946-30.074 0-14.83-8.693-22.815-30.01-28.104l-16.765-3.94c-15.316-3.734-22.456-9.23-22.456-19.912 0-12.859 13.142-21.777 28.975-21.777 18.007 0 29.08 10.577 30.632 25.51h7.864c-1.655-19.703-16.557-32.355-38.289-32.355-20.696 0-37.15 11.822-37.15 29.037 0 13.897 9.21 21.985 27.423 26.341l17.385 4.252c17.385 4.148 24.319 10.37 24.319 21.57 0 13.482-13.867 22.504-31.77 22.504-18.213 0-31.252-10.785-32.804-24.993h-7.968c1.241 17.837 17.488 31.941 40.669 31.941zm94.792-1.452v-7.155c-.414.103-6.933.207-7.45.207-10.867 0-15.627-5.081-15.627-17.94v-76.015h21.628v-6.949h-21.628v-28.31h-7.968v28.31h-16.04v6.949h16.04v76.325c0 17.837 6.726 24.786 22.456 24.786 1.242 0 7.865-.104 8.589-.208z" transform="translate(-412 -189) translate(412 189)"/>
            </g>
        </g>
    </g>
</svg>
