<?xml version="1.0" encoding="UTF-8"?>
<svg width="15000px" height="5000px" viewBox="0 0 15000 5000" version="1.1" xmlns="http://www.w3.org/2000/svg" xmlns:xlink="http://www.w3.org/1999/xlink">
    <title>Logo &amp; Name Dark 2.0</title>
    <defs>
        <filter x="-0.7%" y="-0.9%" width="101.3%" height="101.9%" filterUnits="objectBoundingBox" id="filter-1">
            <feOffset dx="2" dy="-3" in="SourceAlpha" result="shadowOffsetOuter1"></feOffset>
            <feGaussianBlur stdDeviation="5" in="shadowOffsetOuter1" result="shadowBlurOuter1"></feGaussianBlur>
            <feColorMatrix values="0 0 0 0 0.273193308   0 0 0 0 0.635008683   0 0 0 0 0.673233696  0 0 0 0.5 0" type="matrix" in="shadowBlurOuter1" result="shadowMatrixOuter1"></feColorMatrix>
            <feMerge>
                <feMergeNode in="shadowMatrixOuter1"></feMergeNode>
                <feMergeNode in="SourceGraphic"></feMergeNode>
            </feMerge>
        </filter>
        <linearGradient x1="50%" y1="100%" x2="50%" y2="0%" id="linearGradient-2">
            <stop stop-color="#330867" offset="0%"></stop>
            <stop stop-color="#30CFD0" offset="100%"></stop>
        </linearGradient>
        <linearGradient x1="50%" y1="100%" x2="50%" y2="0%" id="linearGradient-3">
            <stop stop-color="#330867" offset="0%"></stop>
            <stop stop-color="#30CFD0" offset="100%"></stop>
        </linearGradient>
        <linearGradient x1="50%" y1="100%" x2="50%" y2="0%" id="linearGradient-4">
            <stop stop-color="#330867" offset="0%"></stop>
            <stop stop-color="#30CFD0" offset="100%"></stop>
        </linearGradient>
        <linearGradient x1="50%" y1="100%" x2="50%" y2="0%" id="linearGradient-5">
            <stop stop-color="#330867" offset="0%"></stop>
            <stop stop-color="#30CFD0" offset="100%"></stop>
        </linearGradient>
        <linearGradient x1="50%" y1="100%" x2="50%" y2="0%" id="linearGradient-6">
            <stop stop-color="#330867" offset="0%"></stop>
            <stop stop-color="#30CFD0" offset="100%"></stop>
        </linearGradient>
    </defs>
    <g id="Logo-&amp;-Name-Dark-2.0" stroke="none" stroke-width="1" fill="none" fill-rule="evenodd">
        <g id="Group-2" transform="translate(2500.000000, 1123.000000)">
            <g filter="url(#filter-1)">
                <g id="Path_1" transform="translate(2649.425137, 0.000000)">
                    <g id="path-3-link" transform="translate(3.769342, 3.842596)" fill="#000000" fill-rule="nonzero">
                        <path d="M0,2280.25625 C0,2249.31718 2.80451253,2218.44403 8.40019746,2188.03534 L165.815727,1326.82132 L278.623237,709.617941 C366.901561,226.907179 778.733084,-82.1193527 1198.64675,19.2508177 L809.826227,2146.08226 L768.641587,2371.55161 C755.147494,2448.52124 722.864022,2520.78986 674.766802,2581.69633 C585.08936,2693.97582 447.782418,2750.41902 308.614947,2716.73517 C211.60843,2691.85549 127.843695,2629.60284 74.9326679,2543.06612 C25.7067099,2464.6204 -0.306413495,2373.37838 0,2280.25625 L0,2280.25625 Z" id="path-3"></path>
                    </g>
                    <path d="M1206.7775,20.2093011 C994.52529,-32.169324 784.095921,19.873169 615.804604,146.155588 C448.61601,271.610545 323.015869,470.36462 278.687028,712.757204 L165.879435,1329.96099 L8.46392018,2191.17496 C2.82614701,2221.81238 0,2252.92239 0,2284.09884 C-0.308819739,2377.94549 25.9103875,2469.91008 75.5261913,2548.97705 C128.92968,2636.3197 213.511506,2699.17928 311.464069,2724.30159 C380.610941,2741.03813 449.25512,2735.78299 511.963215,2712.65589 C576.850279,2688.72519 635.385095,2645.64986 681.459878,2587.96253 C729.966635,2526.53755 762.516228,2453.67335 776.121531,2376.06937 L817.301271,2150.62738 L1206.7775,20.2093011 Z" id="Path" fill="url(#linearGradient-2)"></path>
                </g>
                <path d="M2984.17604,2192.95654 C2978.59991,2223.33367 2975.8036,2254.17478 2975.8036,2285.08174 C2975.45718,2378.1384 3001.3487,2469.32844 3050.38705,2547.74012 C3087.83397,2607.9019 3140.01758,2657.01736 3201.76464,2690.21739 C3249.74811,2664.63558 3292.07086,2629.24316 3326.1031,2586.23929 C3374.02899,2525.39398 3406.19927,2453.20125 3419.64989,2376.31267 L3460.69062,2151.07732 L3847.9746,27.423215 C3558.53875,99.5409681 3318.31619,360.516896 3253.45491,716.073484 L3141.04155,1332.606 L2984.17604,2192.95654 Z" id="Path_5" fill="url(#linearGradient-3)" fill-rule="nonzero"></path>
                <path d="M3847.9746,27.423215 C3558.53875,99.7745871 3318.31619,361.595924 3253.45491,718.304306 L3141.04155,1336.80361 L2984.17604,2199.91077 C2978.59991,2230.38631 2975.8036,2261.32732 2975.8036,2292.3344 C2975.45718,2385.69251 3001.3487,2477.17795 3050.38705,2555.84364" id="Path_6" fill="url(#linearGradient-4)" fill-rule="nonzero"></path>
                <g id="Path_2">
                    <g id="path-7-link" transform="translate(4.361400, 3.842593)" fill="#000000" fill-rule="nonzero">
                        <path d="M1198.64677,2280.254 C1198.64677,2249.31495 1195.84145,2218.44184 1190.24577,2188.03318 L1032.83035,1326.82001 L920.022907,709.617239 C831.744649,226.906955 419.913387,-82.1192716 0,19.2507987 L388.820268,2146.08014 L430.004882,2371.54927 C443.498963,2448.51882 475.782417,2520.78737 523.879607,2581.69378 C613.556983,2693.97315 750.863838,2750.4163 890.031222,2716.73249 C987.065173,2691.87055 1070.85917,2629.616 1123.78777,2543.06361 C1172.98749,2464.60979 1198.97459,2373.36846 1198.64677,2280.254 Z" id="path-7"></path>
                    </g>
                    <path d="M389.476069,2150.62583 L430.660578,2376.09438 C444.260974,2453.67092 476.810544,2526.53506 525.304123,2587.94341 C571.39202,2645.64725 629.926802,2688.72253 694.813822,2712.65321 C757.521877,2735.78029 826.166015,2741.03542 895.263893,2724.31111 C993.292251,2699.19472 1077.90362,2636.33323 1131.34843,2548.93669 C1180.91493,2469.89847 1207.10791,2377.93457 1206.7775,2284.08269 C1206.7775,2252.92017 1203.95056,2221.81018 1198.31195,2191.16822 L1040.89737,1329.95963 L928.089933,712.756903 C883.761046,470.364155 758.160992,271.610277 590.972504,146.155443 C422.681295,19.8731493 212.252066,-32.1692924 0,20.2092814 L389.476069,2150.62583 Z" id="Path" fill="url(#linearGradient-2)"></path>
                </g>
                <path d="M869.298608,2192.95654 C874.869856,2223.33415 877.665446,2254.17525 877.65636,2285.08174 C878.002779,2378.1384 852.110825,2469.32844 803.071643,2547.74012 C765.63153,2607.90827 713.445177,2657.02547 651.691474,2690.21739 C603.711825,2664.63495 561.393325,2629.24246 527.36573,2586.23929 C479.435748,2525.39604 447.264525,2453.20242 433.817356,2376.31267 L392.761085,2151.09247 L5.48535225,27.423215 C294.911295,99.5409681 535.137943,360.516896 600.015157,716.073484 L712.415597,1332.63631 L869.298608,2192.95654 Z" id="Path_3" fill="url(#linearGradient-3)" fill-rule="nonzero"></path>
                <path d="M5.48535225,27.423215 C294.911295,99.7745871 535.137943,361.595924 600.015157,718.304306 L712.415597,1336.80361 L869.298608,2199.91077 C874.869856,2230.38678 877.665446,2261.32779 877.65636,2292.3344 C878.002779,2385.69251 852.110825,2477.17795 803.071643,2555.84364" id="Path_4" fill="url(#linearGradient-4)" fill-rule="nonzero"></path>
                <path d="M3418.39765,2396.85112 C3404.90623,2474.0559 3372.62913,2546.54533 3324.54141,2607.63787 L3299.24323,2634.04329 C3140.13256,2799.82669 2900.99036,2796.53933 2746.64171,2600.34785 C2586.07268,2396.25757 2084.17168,1751.26533 2084.17168,1751.26533 C2046.74689,1700.06951 1987.90534,1669.92305 1925.40328,1669.92305 C1862.90123,1669.92305 1804.05968,1700.06951 1766.63489,1751.26533 L1095.98016,2611.35138 C932.018194,2822.68602 658.262129,2765.87252 538.452928,2618.45877 C484.501739,2555.51312 447.878734,2479.03311 432.334507,2396.85112 L318.150431,1770.33505 C728.293441,2019.93092 1021.69279,1501.30419 1348.75361,1004.88236 C1638.93861,564.528286 2241.8091,556.157693 2534.71738,1008.03275 C2902.791,1575.83291 3056.57417,2011.66686 3532.56685,1770.33505 L3418.39765,2396.85112 Z" id="Path_9" fill="url(#linearGradient-5)" fill-rule="nonzero"></path>
                <path d="M1047.64924,2147.63321 L1756.50071,1290.44058 C1797.7105,1239.11914 1859.29568,1209.36378 1924.30681,1209.36378 C1989.31793,1209.36378 2050.90312,1239.11914 2092.1129,1290.44058 C2092.1129,1290.44058 2622.63695,1933.263 2792.31549,2136.6667 C2955.45534,2332.19818 3208.21959,2335.45931 3376.33776,2170.24879 L3403.08688,2143.9322 C3441.64282,2098.06931 3470.75402,2044.75015 3488.68403,1987.15512 L3415.3023,2389.82164 C3401.82961,2466.7667 3369.59733,2539.01226 3321.57638,2599.89928 L3296.31333,2626.21587 C3137.42361,2791.44156 2898.61348,2788.16525 2744.47916,2592.64895 C2584.13309,2389.23008 2082.92904,1746.40766 2082.92904,1746.40766 C2045.55622,1695.38408 1986.79638,1665.33904 1924.38111,1665.33904 C1861.96584,1665.33904 1803.206,1695.38408 1765.83318,1746.40766 L1096.03541,2603.6913 C932.301133,2814.31499 658.925207,2757.69262 539.282374,2610.77478 C485.406102,2548.04089 448.833952,2471.81816 433.311309,2389.91265 L359.290572,1984.42487 C380.437389,2047.56438 414.171654,2105.54699 458.366311,2154.71669 C584.993634,2301.63454 874.344721,2358.2569 1047.64924,2147.63321 Z" id="Path_10" fill="url(#linearGradient-6)" fill-rule="nonzero"></path>
                <path d="M359.290572,1984.85649 C380.424438,2048.07757 414.159371,2106.13774 458.366311,2155.37274 C584.993634,2302.39254 874.344721,2359.0542 1047.64924,2148.28434 L1756.50071,1290.49685 C1797.7105,1239.13979 1859.29568,1209.36378 1924.30681,1209.36378 C1989.31793,1209.36378 2050.90312,1239.13979 2092.1129,1290.49685 C2092.1129,1290.49685 2622.63695,1933.76537 2792.31549,2137.31022 C2955.45534,2332.97739 3208.21959,2336.24078 3376.33776,2170.91561 L3403.08688,2144.58077 C3441.64282,2098.68605 3470.75402,2045.32988 3488.68403,1987.69488" id="Path_11" stroke="#707070" stroke-width="0.815" opacity="0.7" style="mix-blend-mode: overlay;"></path>
                <g id="Group_1" opacity="0.61" style="mix-blend-mode: multiply;" transform="translate(296.209022, 1286.148783)">
                    <path d="M3258.29924,339.550559 L3209.61583,605.507315 C3191.62409,651.230625 3166.64918,693.771393 3135.61526,731.555471 L3108.24295,759.018561 C2936.62239,931.409737 2678.68522,928.01286 2512.21745,723.988335 C2486.90029,692.961563 2453.69014,652.108131 2415.5059,605.037212 L2517.47448,47.7684901 L2526.21635,0 C2736.51259,332.741654 2914.70071,514.186093 3258.29924,339.550559 Z" id="Path_7"></path>
                    <path d="M737.278465,737.720722 C560.402532,959.054864 265.112819,899.612929 135.840716,745.1586 C99.1769527,702.516771 69.4077752,654.130952 47.6634091,601.838177 L0,339.664437 C283.210019,511.972729 511.875224,314.830783 734.001605,7.67850019 L740.82343,45.1580736 L842.793336,606.313122 L737.278465,737.720722 Z" id="Path_8"></path>
                </g>
            </g>
            <g id="Group" transform="translate(4366.773036, 688.073394)" fill-rule="nonzero">
                <g id="WuuD-Team">
                    <polygon id="Path" fill="#FFFFFF" points="184.391995 721.803428 0 0 110.223148 0 245.169245 529.494372 380.115342 0 476.946893 0 611.89299 529.494372 746.839087 0 857.062235 0 673.700363 721.803428 550.600679 721.803428 428.531118 243.866444 306.461557 721.803428"></polygon>
                    <path d="M934.321451,528.463224 L934.321451,206.229551 L1041.45423,206.229551 L1041.45423,502.168956 C1041.45423,525.197923 1047.03406,546.164594 1058.19373,565.068969 C1069.35339,583.973345 1084.37602,599.010916 1103.2616,610.181684 C1122.14719,621.352451 1143.09302,626.937835 1166.0991,626.937835 C1189.10518,626.937835 1209.96517,621.352451 1228.67906,610.181684 C1247.39296,599.010916 1262.32974,583.973345 1273.48941,565.068969 C1284.64907,546.164594 1290.22891,525.197923 1290.22891,502.168956 L1290.22891,206.229551 L1397.36169,206.229551 L1397.87675,721.803428 L1290.74397,721.803428 L1290.22891,666.121449 C1272.71682,687.431836 1250.91255,704.273916 1224.8161,716.647689 C1198.71966,729.021462 1170.73465,735.208349 1140.86109,735.208349 C1102.74654,735.208349 1068.06574,725.928019 1036.81868,707.36736 C1005.57162,688.8067 980.676981,663.887296 962.134769,632.609147 C943.592557,601.330999 934.321451,566.615691 934.321451,528.463224 Z" id="Path" fill="#FFFFFF"></path>
                    <path d="M1480.28658,528.463224 L1480.28658,206.229551 L1587.41936,206.229551 L1587.41936,502.168956 C1587.41936,525.197923 1592.99919,546.164594 1604.15885,565.068969 C1615.31852,583.973345 1630.34114,599.010916 1649.22673,610.181684 C1668.11232,621.352451 1689.05815,626.937835 1712.06423,626.937835 C1735.0703,626.937835 1755.93029,621.352451 1774.64419,610.181684 C1793.35809,599.010916 1808.29487,583.973345 1819.45454,565.068969 C1830.6142,546.164594 1836.19403,525.197923 1836.19403,502.168956 L1836.19403,206.229551 L1943.32681,206.229551 L1943.84187,721.803428 L1836.70909,721.803428 L1836.19403,666.121449 C1818.68194,687.431836 1796.87768,704.273916 1770.78123,716.647689 C1744.68478,729.021462 1716.69978,735.208349 1686.82621,735.208349 C1648.71167,735.208349 1614.03086,725.928019 1582.7838,707.36736 C1551.53674,688.8067 1526.64211,663.887296 1508.0999,632.609147 C1489.55768,601.330999 1480.28658,566.615691 1480.28658,528.463224 Z" id="Path" fill="#FFFFFF"></path>
                    <path d="M2046.85416,721.803428 L2046.85416,0 L2285.32761,0 C2335.11688,0 2381.81578,9.36625877 2425.42432,28.0987763 C2469.03285,46.8312938 2507.40493,72.7818457 2540.54055,105.950432 C2573.67617,139.119018 2599.51509,177.443343 2618.0573,220.923406 C2636.59951,264.40347 2645.87062,311.062906 2645.87062,360.901714 C2645.87062,410.740522 2636.59951,457.399958 2618.0573,500.880022 C2599.51509,544.360085 2573.67617,582.68441 2540.54055,615.852996 C2507.40493,649.021582 2469.03285,674.972134 2425.42432,693.704652 C2381.81578,712.437169 2335.11688,721.803428 2285.32761,721.803428 L2046.85416,721.803428 Z M2153.98694,614.564062 L2285.32761,614.564062 C2331.68314,614.564062 2374.08986,603.221436 2412.54778,580.536186 C2451.0057,557.850935 2481.65186,527.260218 2504.48625,488.764036 C2527.32064,450.267853 2538.73784,407.647079 2538.73784,360.901714 C2538.73784,314.156349 2527.32064,271.621504 2504.48625,233.297179 C2481.65186,194.972855 2451.0057,164.382138 2412.54778,141.525029 C2374.08986,118.667921 2331.68314,107.239366 2285.32761,107.239366 L2153.98694,107.239366 L2153.98694,614.564062 Z" id="Shape" fill="#FFFFFF"></path>
                    <polygon id="Path" fill="#9A9A9A" points="3531.26123 0 3531.26123 107.239366 3301.54383 107.239366 3301.54383 721.803428 3194.41105 721.803428 3194.41105 107.239366 2965.20871 107.239366 2965.20871 0"></polygon>
                    <path d="M3860.90055,735.208349 C3813.5149,735.208349 3770.33558,723.006434 3731.3626,698.602604 C3692.38962,674.198773 3661.31424,641.459832 3638.13648,600.38578 C3614.95871,559.311728 3603.36983,513.855298 3603.36983,464.016489 C3603.36983,413.833965 3614.95871,368.119748 3638.13648,326.873838 C3661.31424,285.627928 3692.38962,252.803058 3731.3626,228.399228 C3770.33558,203.995397 3813.5149,191.793482 3860.90055,191.793482 C3900.38859,191.793482 3936.61458,199.956735 3969.57851,216.283241 C4002.54245,232.609748 4030.69914,255.12314 4054.04859,283.823419 C4077.39804,312.523699 4094.56676,345.520427 4105.55473,382.813604 C4116.54271,420.106781 4119.80477,459.720041 4115.3409,501.653383 L3718.22853,501.653383 C3724.75264,537.399838 3740.80539,567.303123 3766.38678,591.363237 C3791.96816,615.423351 3823.47275,627.625267 3860.90055,627.968982 C3886.997,627.968982 3910.77567,621.43838 3932.23656,608.377175 C3953.69745,595.31597 3971.29539,577.270885 3985.03036,554.241918 L4093.70832,579.505038 C4073.10586,625.219255 4042.03049,662.598361 4000.4822,691.642356 C3958.93391,720.686351 3912.40669,735.208349 3860.90055,735.208349 Z M3714.6231,419.677136 L4007.178,419.677136 C4003.74426,395.273306 3995.07406,372.931771 3981.1674,352.652532 C3967.26074,332.373293 3949.92034,316.304574 3929.14619,304.446374 C3908.37205,292.588175 3885.6235,286.659076 3860.90055,286.659076 C3823.81613,286.659076 3791.71063,299.462494 3764.58406,325.06933 C3737.45749,350.676165 3720.80384,382.212101 3714.6231,419.677136 Z" id="Shape" fill="#9A9A9A"></path>
                    <path d="M4610.83001,206.229551 L4717.96279,206.229551 L4717.96279,721.803428 L4610.31495,721.803428 L4606.19445,647.045216 C4591.08599,673.511342 4570.74106,694.821729 4545.15967,710.976377 C4519.57829,727.131025 4489.10382,735.208349 4453.73627,735.208349 C4415.9651,735.208349 4380.42586,728.076244 4347.11855,713.812033 C4313.81124,699.547822 4284.62443,679.784157 4259.55811,654.521037 C4234.49178,629.257917 4214.8336,599.956135 4200.58357,566.615691 C4186.33354,533.275247 4179.20852,497.528792 4179.20852,459.376325 C4179.20852,410.224948 4191.14078,365.370021 4215.00529,324.811543 C4238.8698,284.253064 4270.88946,251.943768 4311.06425,227.883654 C4351.23904,203.823539 4395.8777,191.793482 4444.98022,191.793482 C4482.40802,191.793482 4515.4578,200.300451 4544.12955,217.314389 C4572.8013,234.328327 4596.57997,256.068359 4615.46556,282.534485 L4610.83001,206.229551 Z M4451.16096,631.578 C4481.3779,631.578 4507.81772,624.102178 4530.48042,609.150536 C4553.14313,594.198893 4570.74106,574.005583 4583.27422,548.570605 C4595.80738,523.135627 4602.07396,494.950922 4602.07396,464.016489 C4602.07396,432.738341 4595.72154,404.381778 4583.01669,378.9468 C4570.31184,353.511822 4552.62806,333.318512 4529.96536,318.366869 C4507.30266,303.415227 4481.03452,295.939406 4451.16096,295.939406 C4420.94402,295.939406 4393.64577,303.501156 4369.26619,318.624656 C4344.88662,333.748157 4325.40013,354.027396 4310.80672,379.462374 C4296.21331,404.897352 4288.91661,433.082057 4288.91661,464.016489 C4288.91661,495.294638 4296.385,523.651201 4311.32178,549.086179 C4326.25856,574.521157 4346.00258,594.628538 4370.55385,609.408323 C4395.10511,624.188107 4421.97415,631.578 4451.16096,631.578 Z" id="Shape" fill="#9A9A9A"></path>
                    <path d="M4820.97507,721.803428 L4820.97507,206.229551 L4928.10785,206.229551 L4928.10785,260.880382 C4945.96332,239.569995 4967.85343,222.727915 4993.77819,210.354142 C5019.70295,197.980369 5047.77379,191.793482 5077.99073,191.793482 C5114.73178,191.793482 5148.55415,200.644167 5179.45784,218.345537 C5210.36152,236.046907 5234.91278,259.505518 5253.11162,288.721371 C5270.96709,259.505518 5295.17497,236.046907 5325.73529,218.345537 C5356.2956,200.644167 5390.11797,191.793482 5427.20239,191.793482 C5464.97356,191.793482 5499.48268,201.073812 5530.72974,219.634472 C5561.9768,238.195131 5586.87143,263.114535 5605.41365,294.392684 C5623.95586,325.670832 5633.22696,360.214282 5633.22696,398.023033 L5633.22696,721.803428 L5526.09419,721.803428 L5526.09419,425.864023 C5526.09419,403.178772 5520.6002,382.29803 5509.61222,363.221796 C5498.62424,344.145563 5483.85915,328.850205 5465.31694,317.335721 C5446.77472,305.821238 5426.17227,300.063997 5403.50956,300.063997 C5369.51551,300.063997 5340.58622,312.094054 5316.72171,336.154168 C5292.8572,360.214282 5280.92494,390.117567 5280.92494,425.864023 L5280.92494,721.803428 L5173.79216,721.803428 L5173.79216,425.864023 C5173.79216,390.117567 5161.77406,360.214282 5137.73786,336.154168 C5113.70166,312.094054 5084.68653,300.063997 5050.69248,300.063997 C5028.37315,300.063997 5007.85653,305.821238 4989.14263,317.335721 C4970.42874,328.850205 4955.5778,344.145563 4944.58982,363.221796 C4933.60184,382.29803 4928.10785,403.178772 4928.10785,425.864023 L4928.10785,721.803428 L4820.97507,721.803428 Z" id="Path" fill="#9A9A9A"></path>
                </g>
                <g id="In-Code-We-Trust" transform="translate(1061.372364, 1009.539822)" fill="#FFFFFF">
                    <polygon id="Path" points="0 361.340932 0 24.0893954 20.6776996 24.0893954 20.6776996 361.340932"></polygon>
                    <path d="M289.728233,213.913832 L289.728233,361.340932 L269.050533,361.340932 L269.050533,216.081877 C269.050533,200.985856 265.403884,187.254901 258.110587,174.889011 C250.81729,162.523121 240.99939,152.686618 228.656887,145.379501 C216.314384,138.072385 202.689544,134.418827 187.782365,134.418827 C172.714894,134.418827 159.04998,138.072385 146.787623,145.379501 C134.525267,152.686618 124.707367,162.523121 117.333923,174.889011 C109.96048,187.254901 106.273758,200.985856 106.273758,216.081877 L106.273758,361.340932 L85.5960588,361.340932 L85.5960588,120.446977 L106.273758,120.446977 L106.273758,159.712692 C114.92954,145.901438 126.630873,134.780167 141.37776,126.348879 C156.124647,117.917591 172.234017,113.701946 189.705872,113.701946 C208.13948,113.701946 224.930093,118.198634 240.07771,127.192008 C255.225327,136.185382 267.287318,148.270229 276.263684,163.446548 C285.24005,178.622867 289.728233,195.445295 289.728233,213.913832 Z" id="Path"></path>
                    <path d="M609.030384,367.604174 C586.268886,367.604174 564.869871,363.067338 544.83334,353.993666 C524.79681,344.919994 507.204736,332.393508 492.057119,316.414209 C476.909502,300.43491 465.047876,281.886076 456.47224,260.767706 C447.896605,239.649336 443.608788,216.965155 443.608788,192.715164 C443.608788,168.625768 447.896605,146.021885 456.47224,124.903515 C465.047876,103.785145 476.909502,85.1961619 492.057119,69.1365649 C507.204736,53.076968 524.79681,40.5103333 544.83334,31.4366611 C564.869871,22.3629888 586.268886,17.8261526 609.030384,17.8261526 C636.280066,17.8261526 661.365802,24.1696934 684.287593,36.856775 C707.209384,49.5438566 726.204016,66.4867314 741.271487,87.6853994 L723.238609,97.3211576 C710.094645,79.334409 693.344105,65.0413677 672.98699,54.4420337 C652.629875,43.8426997 631.311007,38.5430327 609.030384,38.5430327 C588.833562,38.5430327 569.95915,42.6382299 552.407149,50.8286244 C534.855148,59.0190188 519.467093,70.2607367 506.242982,84.553778 C493.018872,98.8468193 482.720096,115.267757 475.346652,133.816592 C467.973209,152.365426 464.286487,171.998283 464.286487,192.715164 C464.286487,214.074427 468.053355,234.028477 475.587091,252.577311 C483.120826,271.126146 493.499749,287.506935 506.723859,301.719678 C519.947969,315.932421 535.336025,327.013543 552.888026,334.963044 C570.440027,342.912544 589.154146,346.887294 609.030384,346.887294 C632.27276,346.887294 653.912213,341.46718 673.948744,330.626952 C693.985274,319.786724 710.415229,305.694428 723.238609,288.350063 L741.271487,298.226716 C726.204016,319.425384 707.209384,336.28796 684.287593,348.814446 C661.365802,361.340932 636.280066,367.604174 609.030384,367.604174 Z" id="Path"></path>
                    <path d="M899.960809,367.604174 C877.840479,367.604174 857.683729,361.903018 839.49056,350.500704 C821.29739,339.09839 806.790942,323.801624 795.971215,304.610405 C785.151489,285.419187 779.741625,264.18037 779.741625,240.893954 C779.741625,217.446943 785.151489,196.087679 795.971215,176.816163 C806.790942,157.544646 821.29739,142.207731 839.49056,130.805417 C857.683729,119.403103 877.840479,113.701946 899.960809,113.701946 C922.081139,113.701946 942.237889,119.403103 960.431058,130.805417 C978.624228,142.207731 993.130676,157.544646 1003.9504,176.816163 C1014.77013,196.087679 1020.17999,217.446943 1020.17999,240.893954 C1020.17999,264.18037 1014.77013,285.419187 1003.9504,304.610405 C993.130676,323.801624 978.624228,339.09839 960.431058,350.500704 C942.237889,361.903018 922.081139,367.604174 899.960809,367.604174 Z M899.960809,346.887294 C918.715002,346.887294 935.58576,341.989117 950.573085,332.192763 C965.56041,322.396409 977.462109,309.468433 986.278183,293.408836 C995.094256,277.34924 999.502293,259.844279 999.502293,240.893954 C999.502293,221.783034 995.094256,204.157626 986.278183,188.017731 C977.462109,171.877836 965.520337,158.909712 950.452866,149.113358 C935.385395,139.317004 918.554709,134.418827 899.960809,134.418827 C881.046324,134.418827 864.095419,139.317004 849.108094,149.113358 C834.120769,158.909712 822.259143,171.877836 813.523216,188.017731 C804.787289,204.157626 800.419325,221.783034 800.419325,240.893954 C800.419325,260.647259 804.947581,278.51356 814.004093,294.492859 C823.060604,310.472158 835.122596,323.199389 850.190067,332.674551 C865.257538,342.149713 881.847785,346.887294 899.960809,346.887294 Z" id="Shape"></path>
                    <path d="M1269.51458,0 L1290.19228,0 L1290.19228,361.340932 L1269.51458,361.340932 L1269.51458,308.585156 C1261.01909,326.250712 1248.75673,340.503605 1232.72751,351.343833 C1216.69828,362.18406 1197.62351,367.604174 1175.50318,367.604174 C1158.03132,367.604174 1141.68151,364.311957 1126.45375,357.727522 C1111.22599,351.143088 1097.80151,342.029266 1086.18032,330.386058 C1074.55914,318.742851 1065.46255,305.292938 1058.89057,290.036321 C1052.31859,274.779704 1049.0326,258.398915 1049.0326,240.893954 C1049.0326,223.388994 1052.31859,206.927907 1058.89057,191.510694 C1065.46255,176.093481 1074.55914,162.56327 1086.18032,150.920062 C1097.80151,139.276855 1111.22599,130.163033 1126.45375,123.578599 C1141.68151,116.994164 1158.03132,113.701946 1175.50318,113.701946 C1197.62351,113.701946 1216.69828,119.12206 1232.72751,129.962288 C1248.75673,140.802516 1261.01909,155.055409 1269.51458,172.720965 L1269.51458,0 Z M1175.50318,347.128188 C1195.05883,347.128188 1211.72923,342.350458 1225.51436,332.794998 C1239.29949,323.239538 1249.83871,310.39186 1257.132,294.251965 C1264.4253,278.11207 1268.07195,260.326067 1268.07195,240.893954 C1268.07195,220.980054 1264.38523,202.953157 1257.01178,186.813262 C1249.63834,170.673367 1239.01898,157.865838 1225.1537,148.390676 C1211.28842,138.915514 1194.73825,134.177933 1175.50318,134.177933 C1156.10782,134.177933 1138.4356,138.995812 1122.48652,148.63157 C1106.53744,158.267328 1093.79421,171.155155 1084.25682,187.29505 C1074.71943,203.434945 1069.95073,221.301246 1069.95073,240.893954 C1069.95073,260.807855 1074.79958,278.794603 1084.49726,294.8542 C1094.19494,310.913797 1107.05839,323.641028 1123.08761,333.035892 C1139.11684,342.430756 1156.58869,347.128188 1175.50318,347.128188 Z" id="Shape"></path>
                    <path d="M1453.69037,367.604174 C1431.57004,367.604174 1411.41329,361.903018 1393.22012,350.500704 C1375.02695,339.09839 1360.5205,323.801624 1349.70078,304.610405 C1338.88105,285.419187 1333.47119,264.18037 1333.47119,240.893954 C1333.47119,217.446943 1338.88105,196.087679 1349.70078,176.816163 C1360.5205,157.544646 1375.02695,142.207731 1393.22012,130.805417 C1411.41329,119.403103 1431.57004,113.701946 1453.69037,113.701946 C1476.93274,113.701946 1497.57037,119.483401 1515.60325,131.046311 C1533.63613,142.609221 1547.78192,158.628669 1558.04062,179.104655 C1568.29932,199.580641 1573.34853,223.1481 1573.18824,249.807031 L1354.8702,249.807031 C1356.47312,268.436163 1361.84291,285.057846 1370.97957,299.672079 C1380.11623,314.286313 1391.85764,325.809073 1406.20379,334.240362 C1420.54995,342.67165 1436.37881,346.887294 1453.69037,346.887294 C1472.60485,346.887294 1489.71605,341.86867 1505.02396,331.831422 C1520.33187,321.794174 1532.47401,307.862474 1541.45037,290.036321 L1562.36851,294.8542 C1552.75098,316.213464 1538.24453,333.678276 1518.84917,347.248635 C1499.4538,360.818995 1477.73421,367.604174 1453.69037,367.604174 Z M1354.38932,231.258196 L1552.51054,231.258196 C1551.70908,213.753236 1546.78009,197.573192 1537.72358,182.718064 C1528.66707,167.862937 1516.80544,155.938686 1502.1387,146.945312 C1487.47196,137.951938 1471.32252,133.455251 1453.69037,133.455251 C1435.89793,133.455251 1419.78856,137.831491 1405.36226,146.583971 C1390.93596,155.336452 1379.19455,167.140255 1370.13804,181.995383 C1361.08152,196.85051 1355.83195,213.271448 1354.38932,231.258196 Z" id="Shape"></path>
                    <polygon id="Path" points="1796.31504 361.340932 1710.23811 24.0893954 1731.39668 24.0893954 1809.05828 328.579354 1886.47943 24.0893954 1903.79099 24.0893954 1981.45259 328.579354 2058.87374 24.0893954 2080.03232 24.0893954 1994.43626 361.340932 1968.46891 361.340932 1895.13521 73.954444 1821.80151 361.340932"></polygon>
                    <path d="M2221.65051,367.604174 C2199.53018,367.604174 2179.37343,361.903018 2161.18026,350.500704 C2142.9871,339.09839 2128.48065,323.801624 2117.66092,304.610405 C2106.84119,285.419187 2101.43133,264.18037 2101.43133,240.893954 C2101.43133,217.446943 2106.84119,196.087679 2117.66092,176.816163 C2128.48065,157.544646 2142.9871,142.207731 2161.18026,130.805417 C2179.37343,119.403103 2199.53018,113.701946 2221.65051,113.701946 C2244.89289,113.701946 2265.53052,119.483401 2283.56339,131.046311 C2301.59627,142.609221 2315.74206,158.628669 2326.00077,179.104655 C2336.25947,199.580641 2341.30868,223.1481 2341.14838,249.807031 L2122.83035,249.807031 C2124.43327,268.436163 2129.80306,285.057846 2138.93972,299.672079 C2148.07637,314.286313 2159.81778,325.809073 2174.16394,334.240362 C2188.51009,342.67165 2204.33895,346.887294 2221.65051,346.887294 C2240.565,346.887294 2257.6762,341.86867 2272.98411,331.831422 C2288.29202,321.794174 2300.43415,307.862474 2309.41052,290.036321 L2330.32866,294.8542 C2320.71112,316.213464 2306.20467,333.678276 2286.80931,347.248635 C2267.41395,360.818995 2245.69435,367.604174 2221.65051,367.604174 Z M2122.34947,231.258196 L2320.47068,231.258196 C2319.66922,213.753236 2314.74024,197.573192 2305.68372,182.718064 C2296.62721,167.862937 2284.76559,155.938686 2270.09885,146.945312 C2255.4321,137.951938 2239.28266,133.455251 2221.65051,133.455251 C2203.85808,133.455251 2187.7487,137.831491 2173.3224,146.583971 C2158.8961,155.336452 2147.15469,167.140255 2138.09818,181.995383 C2129.04167,196.85051 2123.7921,213.271448 2122.34947,231.258196 Z" id="Shape"></path>
                    <polygon id="Path" points="2754.46194 24.0893954 2754.46194 44.8062755 2632.55968 44.8062755 2632.55968 361.340932 2611.88198 361.340932 2611.88198 44.8062755 2490.46061 44.8062755 2490.46061 24.0893954"></polygon>
                    <path d="M2802.54961,361.340932 L2802.54961,120.446977 L2823.22731,120.446977 L2823.22731,159.712692 C2831.88309,145.901438 2843.58442,134.780167 2858.33131,126.348879 C2873.0782,117.917591 2889.18757,113.701946 2906.65942,113.701946 C2916.11667,113.701946 2925.17318,114.906416 2933.82896,117.315356 L2925.17318,137.309554 C2918.12032,135.382402 2911.3079,134.418827 2904.73592,134.418827 C2889.66844,134.418827 2876.00353,138.072385 2863.74117,145.379501 C2851.47882,152.686618 2841.66092,162.523121 2834.28747,174.889011 C2826.91403,187.254901 2823.22731,200.985856 2823.22731,216.081877 L2823.22731,361.340932 L2802.54961,361.340932 Z" id="Path"></path>
                    <path d="M2957.8728,267.392289 L2957.8728,120.446977 L2978.55049,120.446977 L2978.55049,265.224244 C2978.55049,280.320265 2982.23722,294.05122 2989.61066,306.41711 C2996.9841,318.783 3006.802,328.619503 3019.06436,335.926619 C3031.32672,343.233736 3044.99163,346.887294 3060.0591,346.887294 C3074.96628,346.887294 3088.55105,343.233736 3100.8134,335.926619 C3113.07576,328.619503 3122.89366,318.783 3130.2671,306.41711 C3137.64055,294.05122 3141.32727,280.320265 3141.32727,265.224244 L3141.32727,120.446977 L3162.00497,120.446977 L3162.00497,361.340932 L3141.32727,361.340932 L3141.32727,321.593429 C3132.5112,335.404683 3120.76979,346.525953 3106.10305,354.957242 C3091.43631,363.38853 3075.36701,367.604174 3057.89516,367.604174 C3039.46155,367.604174 3022.67094,363.107487 3007.52332,354.114113 C2992.3757,345.120739 2980.31371,333.035892 2971.33734,317.859573 C2962.36098,302.683254 2957.8728,285.860826 2957.8728,267.392289 Z" id="Path"></path>
                    <path d="M3286.07117,366.158811 C3272.60662,365.998215 3259.42258,363.629424 3246.51906,359.052439 C3233.61553,354.475454 3222.39507,348.25236 3212.85768,340.383158 C3203.3203,332.513955 3196.78839,323.761475 3193.26196,314.125717 L3211.77571,306.176216 C3214.66097,314.045419 3220.23113,321.031343 3228.48618,327.13399 C3236.74123,333.236637 3246.1584,338.014367 3256.73769,341.46718 C3267.31697,344.919994 3277.41539,346.6464 3287.03292,346.6464 C3298.73425,346.6464 3309.63413,344.638951 3319.73254,340.624052 C3329.83095,336.609152 3338.04593,330.948144 3344.37747,323.641028 C3350.70901,316.333911 3353.87479,307.862474 3353.87479,298.226716 C3353.87479,287.948574 3350.54872,279.838477 3343.89659,273.896426 C3337.24447,267.954375 3328.78905,263.136496 3318.53035,259.442789 C3308.27164,255.749082 3297.61221,252.21597 3286.55204,248.843455 C3268.59931,243.543788 3253.17118,238.244121 3240.26766,232.944454 C3227.36413,227.644787 3217.46609,220.980054 3210.57352,212.950256 C3203.68095,204.920457 3200.23467,194.160527 3200.23467,180.670466 C3200.23467,166.698616 3204.32212,154.61377 3212.49703,144.415926 C3220.67193,134.218082 3231.37144,126.30873 3244.59555,120.687871 C3257.81966,115.067012 3271.96545,112.256583 3287.03292,112.256583 C3306.90916,112.256583 3324.90196,116.632823 3341.01133,125.385303 C3357.1207,134.137784 3368.30109,145.580246 3374.55249,159.712692 L3357.24092,169.830238 C3352.43216,157.946136 3343.21535,148.671719 3329.59051,142.006986 C3315.96567,135.342253 3302.02024,131.929589 3287.75424,131.768993 C3275.89261,131.768993 3264.83244,133.696145 3254.57374,137.550448 C3244.31504,141.404751 3236.01991,146.985461 3229.68837,154.292578 C3223.35683,161.599694 3220.19105,170.312026 3220.19105,180.429572 C3220.19105,190.86831 3222.99617,198.777661 3228.6064,204.157626 C3234.21663,209.537591 3242.11102,213.953981 3252.28958,217.406794 C3262.46813,220.859607 3274.53012,224.834357 3288.47555,229.331045 C3303.38273,233.988328 3317.32815,239.08725 3330.31183,244.627811 C3343.2955,250.168372 3353.79464,257.114147 3361.80925,265.465138 C3369.82386,273.816128 3373.83117,284.656356 3373.83117,297.985822 C3373.83117,311.957671 3369.66357,324.082667 3361.32838,334.360809 C3352.99318,344.638951 3342.17345,352.548302 3328.8692,358.088863 C3315.56494,363.629424 3301.29893,366.319407 3286.07117,366.158811 Z" id="Path"></path>
                    <polygon id="Path" points="3535.16532 141.163857 3472.17046 141.163857 3471.68959 361.340932 3451.01189 361.340932 3451.49276 141.163857 3403.88597 141.163857 3403.88597 120.446977 3451.49276 120.446977 3451.01189 44.8062755 3471.68959 44.8062755 3472.17046 120.446977 3535.16532 120.446977"></polygon>
                </g>
            </g>
        </g>
    </g>
</svg>